{
  "source": "C:\\Users\\Peter\\Desktop\\stuff\\MIUN\\quantitative_research\\video_compression\\videos\\UVG\\ReadySteadyGo_1920x1080_120fps_420_8bit_YUV.y4m",
  "output": "C:\\Users\\Peter\\Desktop\\stuff\\MIUN\\quantitative_research\\video_compression\\compressed_videos\\UVG\\av1\\8\\ReadySteadyGo_1920x1080_120fps_420_8bit_YUV_av1.mkv",
  "codec": "av1",
  "ok": "[yuv4mpegpipe @ 000001fcb9fa5c40] Stream #0: not enough frames to estimate rate; consider increasing probesize\nInput #0, yuv4mpegpipe, from 'C:\\Users\\Peter\\Desktop\\stuff\\MIUN\\quantitative_research\\video_compression\\videos\\UVG\\ReadySteadyGo_1920x1080_120fps_420_8bit_YUV.y4m':\n  Duration: 00:00:05.00, start: 0.000000, bitrate: 2985989 kb/s\n  Stream #0:0: Video: rawvideo (I420 / 0x30323449), yuv420p(progressive), 1920x1080, 120 fps, 120 tbr, 120 tbn\n[out#0/matroska @ 000001fcb9fa9940] Codec AVOption b:a (set bitrate (in bits/s)) has not been used for any stream. The most likely reason is either wrong type (e.g. a video option with no video streams) or that it is a private option of some decoder which was not actually used for any stream.\nStream mapping:\n  Stream #0:0 -> #0:0 (rawvideo (native) -> av1 (libsvtav1))\nPress [q] to stop, [?] for help\nSvt[info]: -------------------------------------------\nSvt[info]: SVT [version]:\tSVT-AV1 Encoder Lib v3.1.0-19-g6ecfe8ec\nSvt[info]: SVT [build]  :\tGCC 15.2.0\t 64 bit\nSvt[info]: LIB Build date: Aug 17 2025 11:37:13\nSvt[info]: -------------------------------------------\n[libsvtav1 @ 000001fcb9fac280] Specified chroma sample location center is unsupported on the AV1 bit stream level. Usage of a container that allows passing this information - such as Matroska - is recommended.\nSvt[info]: Level of Parallelism: 5\nSvt[info]: Number of PPCS 93\nSvt[info]: [asm level on system : up to avx2]\nSvt[info]: [asm level selected : up to avx2]\nSvt[info]: -------------------------------------------\nSvt[info]: SVT [config]: main profile\ttier (auto)\tlevel (auto)\nSvt[info]: SVT [config]: width / height / fps numerator / fps denominator \t\t: 1920 / 1080 / 120 / 1\nSvt[info]: SVT [config]: bit-depth / color format \t\t\t\t\t: 8 / YUV420\nSvt[info]: SVT [config]: preset / tune / pred struct \t\t\t\t\t: 4 / PSNR / random access\nSvt[info]: SVT [config]: gop size / mini-gop size / key-frame type \t\t\t: 641 / 16 / key frame\nSvt[info]: SVT [config]: BRC mode / target bitrate (kbps)\t\t\t\t: VBR / 8000 \nSvt[info]: SVT [config]: AQ mode / Variance Boost \t\t\t\t\t: 2 / 0\nSvt[info]: SVT [config]: sharpness / luminance-based QP bias \t\t\t\t: 0 / 0\nSvt[info]: SVT [config]: QP scale compress strength \t\t\t\t\t: 0\nSvt[info]: -------------------------------------------\nOutput #0, matroska, to 'C:\\Users\\Peter\\Desktop\\stuff\\MIUN\\quantitative_research\\video_compression\\compressed_videos\\UVG\\av1\\8\\ReadySteadyGo_1920x1080_120fps_420_8bit_YUV_av1.mkv':\n  Metadata:\n    encoder         : Lavf62.3.100\n  Stream #0:0: Video: av1 (AV01 / 0x31305641), yuv420p(tv, progressive), 1920x1080, q=2-31, 8000 kb/s, 120 fps, 1k tbn\n    Metadata:\n      encoder         : Lavc62.11.100 libsvtav1\n    Side data:\n      cpb: bitrate max/min/avg: 0/0/8000000 buffer size: 8000000 vbv_delay: N/A\nframe=    0 fps=0.0 q=0.0 size=       0KiB time=N/A bitrate=N/A speed=N/A elapsed=0:00:03.78    \nframe=    0 fps=0.0 q=0.0 size=       0KiB time=N/A bitrate=N/A speed=N/A elapsed=0:00:04.30    \nframe=    0 fps=0.0 q=0.0 size=       0KiB time=N/A bitrate=N/A speed=N/A elapsed=0:00:04.82    \nframe=    0 fps=0.0 q=0.0 size=       0KiB time=N/A bitrate=N/A speed=N/A elapsed=0:00:05.33    \nframe=    0 fps=0.0 q=0.0 size=       0KiB time=N/A bitrate=N/A speed=N/A elapsed=0:00:05.84    \nframe=    0 fps=0.0 q=0.0 size=       0KiB time=N/A bitrate=N/A speed=N/A elapsed=0:00:06.37    \nframe=    0 fps=0.0 q=0.0 size=       0KiB time=N/A bitrate=N/A speed=N/A elapsed=0:00:06.87    \nframe=    0 fps=0.0 q=0.0 size=       0KiB time=N/A bitrate=N/A speed=N/A elapsed=0:00:07.39    \nframe=    0 fps=0.0 q=0.0 size=       0KiB time=N/A bitrate=N/A speed=N/A elapsed=0:00:07.92    \nframe=    0 fps=0.0 q=0.0 size=       0KiB time=N/A bitrate=N/A speed=N/A elapsed=0:00:08.42    \nframe=    0 fps=0.0 q=0.0 size=       0KiB time=N/A bitrate=N/A speed=N/A elapsed=0:00:08.94    \nframe=    0 fps=0.0 q=0.0 size=       0KiB time=N/A bitrate=N/A speed=N/A elapsed=0:00:09.46    \nframe=    0 fps=0.0 q=0.0 size=       0KiB time=N/A bitrate=N/A speed=N/A elapsed=0:00:09.97    \nframe=    0 fps=0.0 q=0.0 size=       0KiB time=N/A bitrate=N/A speed=N/A elapsed=0:00:10.49    \nframe=    0 fps=0.0 q=0.0 size=       0KiB time=N/A bitrate=N/A speed=N/A elapsed=0:00:11.01    \nframe=    0 fps=0.0 q=0.0 size=       0KiB time=N/A bitrate=N/A speed=N/A elapsed=0:00:11.52    \nframe=    0 fps=0.0 q=0.0 size=       0KiB time=N/A bitrate=N/A speed=N/A elapsed=0:00:12.03    \nframe=    0 fps=0.0 q=0.0 size=       0KiB time=N/A bitrate=N/A speed=N/A elapsed=0:00:12.55    \nframe=    0 fps=0.0 q=0.0 size=       0KiB time=N/A bitrate=N/A speed=N/A elapsed=0:00:13.06    \nframe=    0 fps=0.0 q=0.0 size=       0KiB time=N/A bitrate=N/A speed=N/A elapsed=0:00:13.58    \nframe=    0 fps=0.0 q=0.0 size=       0KiB time=N/A bitrate=N/A speed=N/A elapsed=0:00:14.09    \nframe=    0 fps=0.0 q=0.0 size=       0KiB time=N/A bitrate=N/A speed=N/A elapsed=0:00:14.61    \nframe=    0 fps=0.0 q=0.0 size=       0KiB time=N/A bitrate=N/A speed=N/A elapsed=0:00:15.13    \nframe=    0 fps=0.0 q=0.0 size=       0KiB time=N/A bitrate=N/A speed=N/A elapsed=0:00:15.64    \nframe=    0 fps=0.0 q=0.0 size=       0KiB time=N/A bitrate=N/A speed=N/A elapsed=0:00:16.17    \nframe=    0 fps=0.0 q=0.0 size=       0KiB time=N/A bitrate=N/A speed=N/A elapsed=0:00:16.68    \nframe=    1 fps=0.1 q=11.0 size=       1KiB time=00:00:00.00 bitrate=N/A speed=   0x elapsed=0:00:17.19    \nframe=    1 fps=0.1 q=11.0 size=       1KiB time=00:00:00.00 bitrate=N/A speed=   0x elapsed=0:00:17.71    \nframe=    1 fps=0.1 q=11.0 size=       1KiB time=00:00:00.00 bitrate=N/A speed=   0x elapsed=0:00:18.22    \nframe=    1 fps=0.1 q=11.0 size=       1KiB time=00:00:00.00 bitrate=N/A speed=   0x elapsed=0:00:18.74    \nframe=    1 fps=0.1 q=11.0 size=       1KiB time=00:00:00.00 bitrate=N/A speed=   0x elapsed=0:00:19.25    \nframe=    1 fps=0.1 q=11.0 size=       1KiB time=00:00:00.00 bitrate=N/A speed=   0x elapsed=0:00:19.77    \nframe=    1 fps=0.0 q=11.0 size=       1KiB time=00:00:00.00 bitrate=N/A speed=   0x elapsed=0:00:20.28    \nframe=    1 fps=0.0 q=11.0 size=       1KiB time=00:00:00.00 bitrate=N/A speed=   0x elapsed=0:00:20.80    \nframe=    1 fps=0.0 q=11.0 size=       1KiB time=00:00:00.00 bitrate=N/A speed=   0x elapsed=0:00:21.31    \nframe=    1 fps=0.0 q=11.0 size=       1KiB time=00:00:00.00 bitrate=N/A speed=   0x elapsed=0:00:21.83    \nframe=    1 fps=0.0 q=11.0 size=       1KiB time=00:00:00.00 bitrate=N/A speed=   0x elapsed=0:00:22.35    \nframe=    1 fps=0.0 q=11.0 size=       1KiB time=00:00:00.00 bitrate=N/A speed=   0x elapsed=0:00:22.86    \nframe=    1 fps=0.0 q=11.0 size=       1KiB time=00:00:00.00 bitrate=N/A speed=   0x elapsed=0:00:23.38    \nframe=    1 fps=0.0 q=11.0 size=       1KiB time=00:00:00.00 bitrate=N/A speed=   0x elapsed=0:00:23.90    \nframe=    2 fps=0.1 q=40.0 size=       1KiB time=00:00:00.00 bitrate= 537.6kbits/s speed=0.000341x elapsed=0:00:24.41    \nframe=    3 fps=0.1 q=37.0 size=       1KiB time=00:00:00.01 bitrate= 268.8kbits/s speed=0.000669x elapsed=0:00:24.92    \nframe=    4 fps=0.2 q=40.0 size=       1KiB time=00:00:00.02 bitrate= 179.2kbits/s speed=0.000983x elapsed=0:00:25.44    \nframe=    5 fps=0.2 q=36.0 size=       1KiB time=00:00:00.03 bitrate= 134.4kbits/s speed=0.00128x elapsed=0:00:25.95    \nframe=    6 fps=0.2 q=38.0 size=       1KiB time=00:00:00.04 bitrate= 107.5kbits/s speed=0.00157x elapsed=0:00:26.48    \nframe=    7 fps=0.3 q=36.0 size=       1KiB time=00:00:00.05 bitrate=  89.6kbits/s speed=0.00185x elapsed=0:00:26.98    \nframe=    8 fps=0.3 q=36.0 size=       1KiB time=00:00:00.05 bitrate=  76.8kbits/s speed=0.00212x elapsed=0:00:27.50    \nframe=    8 fps=0.3 q=36.0 size=       1KiB time=00:00:00.05 bitrate=  76.8kbits/s speed=0.00208x elapsed=0:00:28.03    \nframe=    9 fps=0.3 q=33.0 size=       1KiB time=00:00:00.06 bitrate=  67.2kbits/s speed=0.00234x elapsed=0:00:28.53    \nframe=    9 fps=0.3 q=33.0 size=       1KiB time=00:00:00.06 bitrate=  67.2kbits/s speed=0.00229x elapsed=0:00:29.06    \nframe=   12 fps=0.4 q=35.0 size=       1KiB time=00:00:00.09 bitrate=  48.9kbits/s speed=0.0031x elapsed=0:00:29.57    \nframe=   12 fps=0.4 q=35.0 size=       1KiB time=00:00:00.09 bitrate=  48.9kbits/s speed=0.00305x elapsed=0:00:30.08    \nframe=   13 fps=0.4 q=34.0 size=       1KiB time=00:00:00.10 bitrate=  44.8kbits/s speed=0.00327x elapsed=0:00:30.59    \nframe=   14 fps=0.4 q=33.0 size=       1KiB time=00:00:00.10 bitrate=  41.4kbits/s speed=0.00348x elapsed=0:00:31.11    \nframe=   16 fps=0.5 q=33.0 size=       1KiB time=00:00:00.12 bitrate=  35.8kbits/s speed=0.00395x elapsed=0:00:31.63    \nframe=   16 fps=0.5 q=33.0 size=       1KiB time=00:00:00.12 bitrate=  35.8kbits/s speed=0.00389x elapsed=0:00:32.14    \nframe=   17 fps=0.5 q=21.0 size=       1KiB time=00:00:00.13 bitrate=  33.6kbits/s speed=0.00408x elapsed=0:00:32.65    \nframe=   17 fps=0.5 q=21.0 size=       1KiB time=00:00:00.13 bitrate=  33.6kbits/s speed=0.00402x elapsed=0:00:33.17    \nframe=   18 fps=0.5 q=32.0 size=       1KiB time=00:00:00.14 bitrate=  31.6kbits/s speed=0.0042x elapsed=0:00:33.69    \nframe=   18 fps=0.5 q=32.0 size=       1KiB time=00:00:00.14 bitrate=  31.6kbits/s speed=0.00414x elapsed=0:00:34.21    \nframe=   18 fps=0.5 q=32.0 size=       1KiB time=00:00:00.14 bitrate=  31.6kbits/s speed=0.00408x elapsed=0:00:34.72    \nframe=   19 fps=0.5 q=35.0 size=       1KiB time=00:00:00.15 bitrate=  29.9kbits/s speed=0.00426x elapsed=0:00:35.23    \nframe=   20 fps=0.6 q=32.0 size=       1KiB time=00:00:00.15 bitrate=  28.3kbits/s speed=0.00443x elapsed=0:00:35.75    \nframe=   20 fps=0.6 q=32.0 size=       1KiB time=00:00:00.15 bitrate=  28.3kbits/s speed=0.00436x elapsed=0:00:36.27    \nframe=   20 fps=0.5 q=32.0 size=       1KiB time=00:00:00.15 bitrate=  28.3kbits/s speed=0.0043x elapsed=0:00:36.78    \nframe=   21 fps=0.6 q=33.0 size=       1KiB time=00:00:00.16 bitrate=  26.9kbits/s speed=0.00447x elapsed=0:00:37.29    \nframe=   22 fps=0.6 q=31.0 size=       1KiB time=00:00:00.17 bitrate=  25.6kbits/s speed=0.00463x elapsed=0:00:37.81    \nframe=   22 fps=0.6 q=31.0 size=       1KiB time=00:00:00.17 bitrate=  25.6kbits/s speed=0.00457x elapsed=0:00:38.33    \nframe=   23 fps=0.6 q=35.0 size=       1KiB time=00:00:00.18 bitrate=  24.4kbits/s speed=0.00472x elapsed=0:00:38.85    \nframe=   23 fps=0.6 q=35.0 size=       1KiB time=00:00:00.18 bitrate=  24.4kbits/s speed=0.00466x elapsed=0:00:39.36    \nframe=   23 fps=0.6 q=35.0 size=       1KiB time=00:00:00.18 bitrate=  24.4kbits/s speed=0.0046x elapsed=0:00:39.87    \nframe=   24 fps=0.6 q=31.0 size=       1KiB time=00:00:00.19 bitrate=  23.4kbits/s speed=0.00474x elapsed=0:00:40.40    \nframe=   24 fps=0.6 q=31.0 size=       1KiB time=00:00:00.19 bitrate=  23.4kbits/s speed=0.00468x elapsed=0:00:40.92    \nframe=   24 fps=0.6 q=31.0 size=       1KiB time=00:00:00.19 bitrate=  23.4kbits/s speed=0.00463x elapsed=0:00:41.42    \nframe=   25 fps=0.6 q=32.0 size=       1KiB time=00:00:00.20 bitrate=  22.4kbits/s speed=0.00477x elapsed=0:00:41.95    \nframe=   25 fps=0.6 q=32.0 size=       1KiB time=00:00:00.20 bitrate=  22.4kbits/s speed=0.00471x elapsed=0:00:42.46    \nframe=   26 fps=0.6 q=32.0 size=       1KiB time=00:00:00.20 bitrate=  21.5kbits/s speed=0.00485x elapsed=0:00:42.97    \nframe=   27 fps=0.6 q=34.0 size=       1KiB time=00:00:00.21 bitrate=  20.7kbits/s speed=0.00498x elapsed=0:00:43.49    \nframe=   28 fps=0.6 q=32.0 size=       1KiB time=00:00:00.22 bitrate=  19.9kbits/s speed=0.00511x elapsed=0:00:44.01    \nframe=   29 fps=0.7 q=31.0 size=       1KiB time=00:00:00.23 bitrate=  19.2kbits/s speed=0.00524x elapsed=0:00:44.53    \nframe=   30 fps=0.7 q=32.0 size=       1KiB time=00:00:00.24 bitrate=  18.5kbits/s speed=0.00537x elapsed=0:00:45.03    \nframe=   31 fps=0.7 q=34.0 size=       1KiB time=00:00:00.25 bitrate=  17.9kbits/s speed=0.00549x elapsed=0:00:45.55    \nframe=   32 fps=0.7 q=32.0 size=       1KiB time=00:00:00.25 bitrate=  17.3kbits/s speed=0.00561x elapsed=0:00:46.06    \nframe=   34 fps=0.7 q=34.0 size=       1KiB time=00:00:00.27 bitrate=  16.3kbits/s speed=0.0059x elapsed=0:00:46.59    \nframe=   34 fps=0.7 q=34.0 size=       1KiB time=00:00:00.27 bitrate=  16.3kbits/s speed=0.00584x elapsed=0:00:47.09    \nframe=   35 fps=0.7 q=35.0 size=       1KiB time=00:00:00.28 bitrate=  15.8kbits/s speed=0.00595x elapsed=0:00:47.61    \nframe=   35 fps=0.7 q=35.0 size=       1KiB time=00:00:00.28 bitrate=  15.8kbits/s speed=0.00588x elapsed=0:00:48.17    \nframe=   35 fps=0.7 q=35.0 size=       1KiB time=00:00:00.28 bitrate=  15.8kbits/s speed=0.00582x elapsed=0:00:48.70    \nframe=   35 fps=0.7 q=35.0 size=       1KiB time=00:00:00.28 bitrate=  15.8kbits/s speed=0.00575x elapsed=0:00:49.27    \nframe=   36 fps=0.7 q=33.0 size=       1KiB time=00:00:00.29 bitrate=  15.4kbits/s speed=0.00585x elapsed=0:00:49.86    \nframe=   36 fps=0.7 q=33.0 size=       1KiB time=00:00:00.29 bitrate=  15.4kbits/s speed=0.00578x elapsed=0:00:50.44    \nframe=   37 fps=0.7 q=33.0 size=       1KiB time=00:00:00.30 bitrate=  14.9kbits/s speed=0.00589x elapsed=0:00:50.97    \nframe=   38 fps=0.7 q=32.0 size=       1KiB time=00:00:00.30 bitrate=  14.5kbits/s speed=0.00599x elapsed=0:00:51.48    \nframe=   38 fps=0.7 q=32.0 size=       1KiB time=00:00:00.30 bitrate=  14.5kbits/s speed=0.00593x elapsed=0:00:52.00    \nframe=   39 fps=0.7 q=32.0 size=       1KiB time=00:00:00.31 bitrate=  14.1kbits/s speed=0.00603x elapsed=0:00:52.53    \nframe=   39 fps=0.7 q=32.0 size=       1KiB time=00:00:00.31 bitrate=  14.1kbits/s speed=0.00597x elapsed=0:00:53.06    \nframe=   39 fps=0.7 q=32.0 size=       1KiB time=00:00:00.31 bitrate=  14.1kbits/s speed=0.00591x elapsed=0:00:53.58    \nframe=   39 fps=0.7 q=32.0 size=       1KiB time=00:00:00.31 bitrate=  14.1kbits/s speed=0.00585x elapsed=0:00:54.10    \nframe=   41 fps=0.7 q=30.0 size=       1KiB time=00:00:00.33 bitrate=  13.4kbits/s speed=0.0061x elapsed=0:00:54.67    \nframe=   41 fps=0.7 q=30.0 size=       1KiB time=00:00:00.33 bitrate=  13.4kbits/s speed=0.00603x elapsed=0:00:55.28    \nframe=   42 fps=0.8 q=31.0 size=       1KiB time=00:00:00.34 bitrate=  13.1kbits/s speed=0.00612x elapsed=0:00:55.80    \nframe=   43 fps=0.8 q=34.0 size=       1KiB time=00:00:00.35 bitrate=  12.8kbits/s speed=0.00621x elapsed=0:00:56.32    \nframe=   43 fps=0.8 q=34.0 size=       1KiB time=00:00:00.35 bitrate=  12.8kbits/s speed=0.00616x elapsed=0:00:56.84    \nframe=   45 fps=0.8 q=31.0 size=       1KiB time=00:00:00.36 bitrate=  12.2kbits/s speed=0.00639x elapsed=0:00:57.37    \nframe=   45 fps=0.8 q=31.0 size=       1KiB time=00:00:00.36 bitrate=  12.2kbits/s speed=0.00633x elapsed=0:00:57.89    \nframe=   46 fps=0.8 q=31.0 size=       1KiB time=00:00:00.37 bitrate=  11.9kbits/s speed=0.00642x elapsed=0:00:58.43    \nframe=   47 fps=0.8 q=35.0 size=       1KiB time=00:00:00.38 bitrate=  11.7kbits/s speed=0.0065x elapsed=0:00:58.96    \nframe=   48 fps=0.8 q=31.0 size=       1KiB time=00:00:00.39 bitrate=  11.4kbits/s speed=0.00658x elapsed=0:00:59.48    \nframe=   49 fps=0.8 q=13.0 size=       1KiB time=00:00:00.40 bitrate=  11.2kbits/s speed=0.00667x elapsed=0:01:00.00    \nframe=   50 fps=0.8 q=32.0 size=       1KiB time=00:00:00.40 bitrate=  11.0kbits/s speed=0.00674x elapsed=0:01:00.57    \nframe=   51 fps=0.8 q=35.0 size=       1KiB time=00:00:00.41 bitrate=  10.8kbits/s speed=0.00682x elapsed=0:01:01.10    \nframe=   51 fps=0.8 q=35.0 size=       1KiB time=00:00:00.41 bitrate=  10.8kbits/s speed=0.00676x elapsed=0:01:01.61    \nframe=   51 fps=0.8 q=35.0 size=       1KiB time=00:00:00.41 bitrate=  10.8kbits/s speed=0.00671x elapsed=0:01:02.13    \nframe=   51 fps=0.8 q=35.0 size=       1KiB time=00:00:00.41 bitrate=  10.8kbits/s speed=0.00665x elapsed=0:01:02.68    \nframe=   52 fps=0.8 q=31.0 size=       1KiB time=00:00:00.42 bitrate=  10.5kbits/s speed=0.00673x elapsed=0:01:03.19    \nframe=   52 fps=0.8 q=31.0 size=       1KiB time=00:00:00.42 bitrate=  10.5kbits/s speed=0.00667x elapsed=0:01:03.70    \nframe=   52 fps=0.8 q=31.0 size=       1KiB time=00:00:00.42 bitrate=  10.5kbits/s speed=0.00662x elapsed=0:01:04.23    \nframe=   53 fps=0.8 q=33.0 size=       1KiB time=00:00:00.43 bitrate=  10.3kbits/s speed=0.00669x elapsed=0:01:04.75    \nframe=   54 fps=0.8 q=31.0 size=       1KiB time=00:00:00.44 bitrate=  10.1kbits/s speed=0.00677x elapsed=0:01:05.26    \nframe=   54 fps=0.8 q=31.0 size=       1KiB time=00:00:00.44 bitrate=  10.1kbits/s speed=0.00671x elapsed=0:01:05.78    \nframe=   55 fps=0.8 q=32.0 size=       1KiB time=00:00:00.45 bitrate=  10.0kbits/s speed=0.00678x elapsed=0:01:06.35    \nframe=   55 fps=0.8 q=32.0 size=       1KiB time=00:00:00.45 bitrate=  10.0kbits/s speed=0.00673x elapsed=0:01:06.86    \nframe=   56 fps=0.8 q=31.0 size=       1KiB time=00:00:00.45 bitrate=  10.0kbits/s speed=0.00668x elapsed=0:01:07.37    \nframe=   56 fps=0.8 q=31.0 size=       1KiB time=00:00:00.45 bitrate=   9.8kbits/s speed=0.00675x elapsed=0:01:07.93    \nframe=   56 fps=0.8 q=31.0 size=       1KiB time=00:00:00.45 bitrate=   9.8kbits/s speed=0.00669x elapsed=0:01:08.49    \nframe=   57 fps=0.8 q=29.0 size=       1KiB time=00:00:00.46 bitrate=   9.6kbits/s speed=0.00676x elapsed=0:01:09.00    \nframe=   58 fps=0.8 q=31.0 size=       1KiB time=00:00:00.47 bitrate=   9.4kbits/s speed=0.00683x elapsed=0:01:09.51    \nframe=   59 fps=0.8 q=35.0 size=       1KiB time=00:00:00.48 bitrate=   9.3kbits/s speed=0.0069x elapsed=0:01:10.03    \nframe=   59 fps=0.8 q=35.0 size=       1KiB time=00:00:00.48 bitrate=   9.3kbits/s speed=0.00685x elapsed=0:01:10.57    \nframe=   60 fps=0.8 q=31.0 size=       1KiB time=00:00:00.49 bitrate=   9.1kbits/s speed=0.00691x elapsed=0:01:11.11    \nframe=   61 fps=0.9 q=31.0 size=       1KiB time=00:00:00.50 bitrate=   9.0kbits/s speed=0.00698x elapsed=0:01:11.63    \nframe=   62 fps=0.9 q=31.0 size=       1KiB time=00:00:00.50 bitrate=   8.8kbits/s speed=0.00704x elapsed=0:01:12.16    \nframe=   63 fps=0.9 q=35.0 size=       1KiB time=00:00:00.51 bitrate=   8.7kbits/s speed=0.00711x elapsed=0:01:12.68    \nframe=   64 fps=0.9 q=31.0 size=       1KiB time=00:00:00.52 bitrate=   8.5kbits/s speed=0.00717x elapsed=0:01:13.20    \nframe=   65 fps=0.9 q=11.0 size=       1KiB time=00:00:00.53 bitrate=   8.4kbits/s speed=0.00723x elapsed=0:01:13.72    \nframe=   66 fps=0.9 q=32.0 size=       1KiB time=00:00:00.54 bitrate=   8.3kbits/s speed=0.00729x elapsed=0:01:14.25    \nframe=   66 fps=0.9 q=32.0 size=       1KiB time=00:00:00.54 bitrate=   8.3kbits/s speed=0.00724x elapsed=0:01:14.77    \nframe=   67 fps=0.9 q=36.0 size=       1KiB time=00:00:00.55 bitrate=   8.1kbits/s speed=0.00731x elapsed=0:01:15.28    \nframe=   68 fps=0.9 q=32.0 size=       1KiB time=00:00:00.55 bitrate=   8.0kbits/s speed=0.00737x elapsed=0:01:15.80    \nframe=   69 fps=0.9 q=34.0 size=       1KiB time=00:00:00.56 bitrate=   7.9kbits/s speed=0.00742x elapsed=0:01:16.32    \nframe=   69 fps=0.9 q=34.0 size=       1KiB time=00:00:00.56 bitrate=   7.9kbits/s speed=0.00737x elapsed=0:01:16.88    \nframe=   70 fps=0.9 q=33.0 size=       1KiB time=00:00:00.57 bitrate=   7.8kbits/s speed=0.00743x elapsed=0:01:17.39    \nframe=   70 fps=0.9 q=33.0 size=       1KiB time=00:00:00.57 bitrate=   7.8kbits/s speed=0.00738x elapsed=0:01:17.90    \nframe=   70 fps=0.9 q=33.0 size=       1KiB time=00:00:00.57 bitrate=   7.8kbits/s speed=0.00733x elapsed=0:01:18.43    \nframe=   70 fps=0.9 q=33.0 size=       1KiB time=00:00:00.57 bitrate=   7.8kbits/s speed=0.00728x elapsed=0:01:18.96    \nframe=   71 fps=0.9 q=36.0 size=       1KiB time=00:00:00.58 bitrate=   7.7kbits/s speed=0.00734x elapsed=0:01:19.47    \nframe=   72 fps=0.9 q=33.0 size=       1KiB time=00:00:00.59 bitrate=   7.6kbits/s speed=0.0074x elapsed=0:01:19.98    \nframe=   72 fps=0.9 q=33.0 size=       1KiB time=00:00:00.59 bitrate=   7.6kbits/s speed=0.00735x elapsed=0:01:20.54    \nframe=   73 fps=0.9 q=28.0 size=       1KiB time=00:00:00.60 bitrate=   7.5kbits/s speed=0.0074x elapsed=0:01:21.05    \nframe=   73 fps=0.9 q=28.0 size=       1KiB time=00:00:00.60 bitrate=   7.5kbits/s speed=0.00736x elapsed=0:01:21.57    \nframe=   75 fps=0.9 q=35.0 size=       1KiB time=00:00:00.61 bitrate=   7.3kbits/s speed=0.00751x elapsed=0:01:22.08    \nframe=   75 fps=0.9 q=35.0 size=       1KiB time=00:00:00.61 bitrate=   7.3kbits/s speed=0.00746x elapsed=0:01:22.61    \nframe=   75 fps=0.9 q=35.0 size=       1KiB time=00:00:00.61 bitrate=   7.3kbits/s speed=0.00742x elapsed=0:01:23.13    \nframe=   75 fps=0.9 q=35.0 size=       1KiB time=00:00:00.61 bitrate=   7.3kbits/s speed=0.00737x elapsed=0:01:23.64    \nframe=   76 fps=0.9 q=34.0 size=       1KiB time=00:00:00.62 bitrate=   7.2kbits/s speed=0.00742x elapsed=0:01:24.22    \nframe=   76 fps=0.9 q=34.0 size=       1KiB time=00:00:00.62 bitrate=   7.2kbits/s speed=0.00737x elapsed=0:01:24.76    \nframe=   76 fps=0.9 q=34.0 size=       1KiB time=00:00:00.62 bitrate=   7.2kbits/s speed=0.00732x elapsed=0:01:25.43    \nframe=   78 fps=0.9 q=35.0 size=       1KiB time=00:00:00.64 bitrate=   7.0kbits/s speed=0.00746x elapsed=0:01:25.97    \nframe=   79 fps=0.9 q=35.0 size=       1KiB time=00:00:00.65 bitrate=   6.9kbits/s speed=0.00751x elapsed=0:01:26.56    \nframe=   80 fps=0.9 q=35.0 size=       1KiB time=00:00:00.65 bitrate=   6.8kbits/s speed=0.00756x elapsed=0:01:27.09    \nframe=   81 fps=0.9 q=12.0 size=       1KiB time=00:00:00.65 bitrate=   6.8kbits/s speed=0.00751x elapsed=0:01:27.61    \nframe=   83 fps=0.9 q=36.0 size=       1KiB time=00:00:00.68 bitrate=   6.6kbits/s speed=0.00775x elapsed=0:01:28.12    \nframe=   83 fps=0.9 q=36.0 size=       1KiB time=00:00:00.68 bitrate=   6.6kbits/s speed=0.00771x elapsed=0:01:28.64    \nframe=   84 fps=0.9 q=36.0 size=       1KiB time=00:00:00.69 bitrate=   6.5kbits/s speed=0.00775x elapsed=0:01:29.22    \nframe=   85 fps=0.9 q=34.0 size=       1KiB time=00:00:00.70 bitrate=   6.4kbits/s speed=0.0078x elapsed=0:01:29.75    \nframe=   85 fps=0.9 q=34.0 size=       1KiB time=00:00:00.70 bitrate=   6.4kbits/s speed=0.00775x elapsed=0:01:30.27    \nframe=   85 fps=0.9 q=34.0 size=       1KiB time=00:00:00.70 bitrate=   6.4kbits/s speed=0.00771x elapsed=0:01:30.79    \nframe=   86 fps=0.9 q=34.0 size=       1KiB time=00:00:00.70 bitrate=   6.3kbits/s speed=0.00776x elapsed=0:01:31.31    \nframe=   86 fps=0.9 q=34.0 size=       1KiB time=00:00:00.70 bitrate=   6.3kbits/s speed=0.00771x elapsed=0:01:31.83    \nframe=   86 fps=0.9 q=34.0 size=       1KiB time=00:00:00.70 bitrate=   6.3kbits/s speed=0.00767x elapsed=0:01:32.37    \nframe=   86 fps=0.9 q=34.0 size=       1KiB time=00:00:00.70 bitrate=   6.3kbits/s speed=0.00762x elapsed=0:01:32.93    \nframe=   87 fps=0.9 q=33.0 size=       1KiB time=00:00:00.71 bitrate=   6.3kbits/s speed=0.00767x elapsed=0:01:33.46    \nframe=   87 fps=0.9 q=33.0 size=       1KiB time=00:00:00.71 bitrate=   6.3kbits/s speed=0.00763x elapsed=0:01:33.97    \nframe=   88 fps=0.9 q=34.0 size=       1KiB time=00:00:00.72 bitrate=   6.2kbits/s speed=0.00767x elapsed=0:01:34.55    \nframe=   89 fps=0.9 q=27.0 size=       1KiB time=00:00:00.73 bitrate=   6.1kbits/s speed=0.00771x elapsed=0:01:35.09    \nframe=   90 fps=0.9 q=36.0 size=       1KiB time=00:00:00.74 bitrate=   6.0kbits/s speed=0.00776x elapsed=0:01:35.62    \nframe=   91 fps=0.9 q=35.0 size=       1KiB time=00:00:00.75 bitrate=   6.0kbits/s speed=0.0078x elapsed=0:01:36.14    \nframe=   91 fps=0.9 q=35.0 size=       1KiB time=00:00:00.75 bitrate=   6.0kbits/s speed=0.00776x elapsed=0:01:36.66    \nframe=   91 fps=0.9 q=35.0 size=       1KiB time=00:00:00.75 bitrate=   6.0kbits/s speed=0.00772x elapsed=0:01:37.21    \nframe=   92 fps=0.9 q=36.0 size=       1KiB time=00:00:00.75 bitrate=   5.9kbits/s speed=0.00776x elapsed=0:01:37.74    \nframe=   92 fps=0.9 q=36.0 size=       1KiB time=00:00:00.75 bitrate=   5.9kbits/s speed=0.00771x elapsed=0:01:38.32    \nframe=   94 fps=1.0 q=36.0 size=       1KiB time=00:00:00.77 bitrate=   5.8kbits/s speed=0.00783x elapsed=0:01:38.93    \nframe=   96 fps=1.0 q=36.0 size=       1KiB time=00:00:00.79 bitrate=   5.7kbits/s speed=0.00796x elapsed=0:01:39.51    \nframe=   98 fps=1.0 q=38.0 size=       1KiB time=00:00:00.80 bitrate=   5.5kbits/s speed=0.00807x elapsed=0:01:40.14    \nframe=   98 fps=1.0 q=38.0 size=       1KiB time=00:00:00.80 bitrate=   5.5kbits/s speed=0.00803x elapsed=0:01:40.69    \nframe=   99 fps=1.0 q=36.0 size=       1KiB time=00:00:00.81 bitrate=   5.5kbits/s speed=0.00807x elapsed=0:01:41.24    \nframe=   99 fps=1.0 q=36.0 size=       1KiB time=00:00:00.81 bitrate=   5.5kbits/s speed=0.00802x elapsed=0:01:41.78    \nframe=   99 fps=1.0 q=36.0 size=       1KiB time=00:00:00.81 bitrate=   5.5kbits/s speed=0.00798x elapsed=0:01:42.37    \nframe=  100 fps=1.0 q=33.0 size=       1KiB time=00:00:00.81 bitrate=   5.5kbits/s speed=0.00794x elapsed=0:01:42.91    \nframe=  100 fps=1.0 q=33.0 size=       1KiB time=00:00:00.82 bitrate=   5.4kbits/s speed=0.00797x elapsed=0:01:43.50    \nframe=  101 fps=1.0 q=33.0 size=       1KiB time=00:00:00.83 bitrate=   5.4kbits/s speed=0.00801x elapsed=0:01:44.05    \nframe=  102 fps=1.0 q=36.0 size=       1KiB time=00:00:00.84 bitrate=   5.3kbits/s speed=0.00805x elapsed=0:01:44.59    \nframe=  102 fps=1.0 q=36.0 size=       1KiB time=00:00:00.84 bitrate=   5.3kbits/s speed=0.008x elapsed=0:01:45.22    \nframe=  102 fps=1.0 q=36.0 size=       1KiB time=00:00:00.84 bitrate=   5.3kbits/s speed=0.00795x elapsed=0:01:45.84    \nframe=  102 fps=1.0 q=36.0 size=       1KiB time=00:00:00.84 bitrate=   5.3kbits/s speed=0.00791x elapsed=0:01:46.43    \nframe=  103 fps=1.0 q=33.0 size=       1KiB time=00:00:00.85 bitrate=   5.3kbits/s speed=0.00794x elapsed=0:01:47.10    \nframe=  103 fps=1.0 q=33.0 size=       1KiB time=00:00:00.85 bitrate=   5.3kbits/s speed=0.0079x elapsed=0:01:47.62    \nframe=  104 fps=1.0 q=36.0 size=       1KiB time=00:00:00.85 bitrate=   5.2kbits/s speed=0.00794x elapsed=0:01:48.15    \nframe=  106 fps=1.0 q=38.0 size=       1KiB time=00:00:00.86 bitrate=   5.2kbits/s speed=0.00797x elapsed=0:01:48.76    \nframe=  106 fps=1.0 q=38.0 size=       1KiB time=00:00:00.87 bitrate=   5.1kbits/s speed=0.008x elapsed=0:01:49.38    \nframe=  106 fps=1.0 q=38.0 size=       1KiB time=00:00:00.87 bitrate=   5.1kbits/s speed=0.00796x elapsed=0:01:49.90    \nframe=  107 fps=1.0 q=36.0 size=       1KiB time=00:00:00.88 bitrate=   5.1kbits/s speed=0.00799x elapsed=0:01:50.49    \nframe=  107 fps=1.0 q=36.0 size=       1KiB time=00:00:00.88 bitrate=   5.1kbits/s speed=0.00796x elapsed=0:01:51.03    \nframe=  108 fps=1.0 q=35.0 size=       1KiB time=00:00:00.89 bitrate=   5.0kbits/s speed=0.00799x elapsed=0:01:51.65    \nframe=  109 fps=1.0 q=32.0 size=       1KiB time=00:00:00.90 bitrate=   5.0kbits/s speed=0.00802x elapsed=0:01:52.19    \nframe=  110 fps=1.0 q=38.0 size=       1KiB time=00:00:00.90 bitrate=   4.9kbits/s speed=0.00806x elapsed=0:01:52.71    \nframe=  112 fps=1.0 q=37.0 size=       1KiB time=00:00:00.92 bitrate=   4.8kbits/s speed=0.00817x elapsed=0:01:53.22    \nframe=  114 fps=1.0 q=39.0 size=       1KiB time=00:00:00.94 bitrate=   4.8kbits/s speed=0.00828x elapsed=0:01:53.74    \nframe=  114 fps=1.0 q=39.0 size=       1KiB time=00:00:00.94 bitrate=   4.8kbits/s speed=0.00824x elapsed=0:01:54.27    \nframe=  115 fps=1.0 q=37.0 size=       1KiB time=00:00:00.95 bitrate=   4.7kbits/s speed=0.00828x elapsed=0:01:54.79    \nframe=  115 fps=1.0 q=37.0 size=       1KiB time=00:00:00.95 bitrate=   4.7kbits/s speed=0.00824x elapsed=0:01:55.31    \nframe=  116 fps=1.0 q=37.0 size=       1KiB time=00:00:00.95 bitrate=   4.7kbits/s speed=0.00827x elapsed=0:01:55.89    \nframe=  117 fps=1.0 q=34.0 size=       1KiB time=00:00:00.96 bitrate=   4.6kbits/s speed=0.0083x elapsed=0:01:56.41    \nframe=  117 fps=1.0 q=34.0 size=       1KiB time=00:00:00.96 bitrate=   4.6kbits/s speed=0.00827x elapsed=0:01:56.92    \nframe=  117 fps=1.0 q=34.0 size=       1KiB time=00:00:00.96 bitrate=   4.6kbits/s speed=0.00823x elapsed=0:01:57.46    \nframe=  118 fps=1.0 q=37.0 size=       1KiB time=00:00:00.97 bitrate=   4.6kbits/s speed=0.00826x elapsed=0:01:58.05    \nframe=  119 fps=1.0 q=34.0 size=       1KiB time=00:00:00.98 bitrate=   4.6kbits/s speed=0.00829x elapsed=0:01:58.65    \nframe=  119 fps=1.0 q=34.0 size=       1KiB time=00:00:00.98 bitrate=   4.6kbits/s speed=0.00824x elapsed=0:01:59.29    \nframe=  120 fps=1.0 q=37.0 size=       1KiB time=00:00:00.99 bitrate=   4.5kbits/s speed=0.00828x elapsed=0:01:59.80    \nframe=  121 fps=1.0 q=28.0 size=       1KiB time=00:00:01.00 bitrate=   4.5kbits/s speed=0.00831x elapsed=0:02:00.31    \nframe=  123 fps=1.0 q=37.0 size=       1KiB time=00:00:01.01 bitrate=   4.4kbits/s speed=0.00841x elapsed=0:02:00.83    \nframe=  123 fps=1.0 q=37.0 size=       1KiB time=00:00:01.01 bitrate=   4.4kbits/s speed=0.00838x elapsed=0:02:01.35    \nframe=  123 fps=1.0 q=37.0 size=       1KiB time=00:00:01.01 bitrate=   4.4kbits/s speed=0.00834x elapsed=0:02:01.86    \nframe=  123 fps=1.0 q=37.0 size=       1KiB time=00:00:01.01 bitrate=   4.4kbits/s speed=0.00831x elapsed=0:02:02.38    \nframe=  124 fps=1.0 q=39.0 size=       1KiB time=00:00:01.02 bitrate=   4.4kbits/s speed=0.00834x elapsed=0:02:02.89    \nframe=  126 fps=1.0 q=39.0 size=       1KiB time=00:00:01.04 bitrate=   4.3kbits/s speed=0.00844x elapsed=0:02:03.41    \nframe=  128 fps=1.0 q=39.0 size=       1KiB time=00:00:01.05 bitrate=   4.2kbits/s speed=0.00854x elapsed=0:02:03.92    \nframe=  128 fps=1.0 q=39.0 size=       1KiB time=00:00:01.05 bitrate=   4.2kbits/s speed=0.0085x elapsed=0:02:04.44    \nframe=  129 fps=1.0 q=17.0 size=       1KiB time=00:00:01.06 bitrate=   4.2kbits/s speed=0.00854x elapsed=0:02:04.96    \nframe=  130 fps=1.0 q=40.0 size=       1KiB time=00:00:01.07 bitrate=   4.2kbits/s speed=0.00857x elapsed=0:02:05.47    \nframe=  131 fps=1.0 q=39.0 size=       1KiB time=00:00:01.08 bitrate=   4.1kbits/s speed=0.0086x elapsed=0:02:05.98    \nframe=  132 fps=1.0 q=40.0 size=       1KiB time=00:00:01.09 bitrate=   4.1kbits/s speed=0.00863x elapsed=0:02:06.50    \nframe=  133 fps=1.0 q=36.0 size=       1KiB time=00:00:01.10 bitrate=   4.1kbits/s speed=0.00866x elapsed=0:02:07.01    \nframe=  133 fps=1.0 q=36.0 size=       1KiB time=00:00:01.10 bitrate=   4.1kbits/s speed=0.00862x elapsed=0:02:07.53    \nframe=  134 fps=1.0 q=38.0 size=       1KiB time=00:00:01.10 bitrate=   4.0kbits/s speed=0.00866x elapsed=0:02:08.05    \nframe=  134 fps=1.0 q=38.0 size=       1KiB time=00:00:01.10 bitrate=   4.0kbits/s speed=0.00862x elapsed=0:02:08.56    \nframe=  135 fps=1.0 q=35.0 size=       1KiB time=00:00:01.11 bitrate=   4.0kbits/s speed=0.00865x elapsed=0:02:09.09    \nframe=  135 fps=1.0 q=35.0 size=       1KiB time=00:00:01.11 bitrate=   4.0kbits/s speed=0.00862x elapsed=0:02:09.59    \nframe=  135 fps=1.0 q=35.0 size=       1KiB time=00:00:01.11 bitrate=   4.0kbits/s speed=0.00858x elapsed=0:02:10.11    \nframe=  136 fps=1.0 q=38.0 size=       1KiB time=00:00:01.12 bitrate=   4.0kbits/s speed=0.00861x elapsed=0:02:10.63    \nframe=  138 fps=1.1 q=39.0 size=       1KiB time=00:00:01.14 bitrate=   3.9kbits/s speed=0.00871x elapsed=0:02:11.14    \nframe=  138 fps=1.0 q=39.0 size=       1KiB time=00:00:01.14 bitrate=   3.9kbits/s speed=0.00867x elapsed=0:02:11.66    \nframe=  139 fps=1.1 q=37.0 size=       1KiB time=00:00:01.15 bitrate=   3.9kbits/s speed=0.0087x elapsed=0:02:12.18    \nframe=  139 fps=1.0 q=37.0 size=       1KiB time=00:00:01.15 bitrate=   3.9kbits/s speed=0.00867x elapsed=0:02:12.69    \nframe=  140 fps=1.1 q=36.0 size=       1KiB time=00:00:01.15 bitrate=   3.9kbits/s speed=0.0087x elapsed=0:02:13.20    \nframe=  142 fps=1.1 q=38.0 size=       1KiB time=00:00:01.17 bitrate=   3.8kbits/s speed=0.00879x elapsed=0:02:13.73    \nframe=  143 fps=1.1 q=36.0 size=       1KiB time=00:00:01.18 bitrate=   3.8kbits/s speed=0.00881x elapsed=0:02:14.24    \nframe=  144 fps=1.1 q=38.0 size=       1KiB time=00:00:01.19 bitrate=   3.8kbits/s speed=0.00884x elapsed=0:02:14.75    \nframe=  145 fps=1.1 q=20.0 size=       1KiB time=00:00:01.20 bitrate=   3.7kbits/s speed=0.00887x elapsed=0:02:15.27    \nframe=  146 fps=1.1 q=39.0 size=       1KiB time=00:00:01.20 bitrate=   3.7kbits/s speed=0.0089x elapsed=0:02:15.79    \nframe=  147 fps=1.1 q=38.0 size=       1KiB time=00:00:01.21 bitrate=   3.7kbits/s speed=0.00893x elapsed=0:02:16.30    \nframe=  148 fps=1.1 q=39.0 size=       1KiB time=00:00:01.22 bitrate=   3.7kbits/s speed=0.00895x elapsed=0:02:16.82    \nframe=  148 fps=1.1 q=39.0 size=       1KiB time=00:00:01.22 bitrate=   3.7kbits/s speed=0.00892x elapsed=0:02:17.33    \nframe=  149 fps=1.1 q=36.0 size=       1KiB time=00:00:01.23 bitrate=   3.6kbits/s speed=0.00895x elapsed=0:02:17.85    \nframe=  150 fps=1.1 q=39.0 size=       1KiB time=00:00:01.24 bitrate=   3.6kbits/s speed=0.00897x elapsed=0:02:18.36    \nframe=  150 fps=1.1 q=39.0 size=       1KiB time=00:00:01.24 bitrate=   3.6kbits/s speed=0.00894x elapsed=0:02:18.88    \nframe=  150 fps=1.1 q=39.0 size=       1KiB time=00:00:01.24 bitrate=   3.6kbits/s speed=0.00891x elapsed=0:02:19.40    \nframe=  151 fps=1.1 q=38.0 size=       1KiB time=00:00:01.25 bitrate=   3.6kbits/s speed=0.00893x elapsed=0:02:19.90    \nframe=  151 fps=1.1 q=38.0 size=       1KiB time=00:00:01.25 bitrate=   3.6kbits/s speed=0.0089x elapsed=0:02:20.43    \nframe=  152 fps=1.1 q=39.0 size=       1KiB time=00:00:01.25 bitrate=   3.6kbits/s speed=0.00893x elapsed=0:02:20.94    \nframe=  154 fps=1.1 q=39.0 size=       1KiB time=00:00:01.27 bitrate=   3.5kbits/s speed=0.00901x elapsed=0:02:21.46    \nframe=  154 fps=1.1 q=39.0 size=       1KiB time=00:00:01.27 bitrate=   3.5kbits/s speed=0.00898x elapsed=0:02:21.97    \nframe=  155 fps=1.1 q=37.0 size=       1KiB time=00:00:01.28 bitrate=   3.5kbits/s speed=0.00901x elapsed=0:02:22.50    \nframe=  156 fps=1.1 q=37.0 size=       1KiB time=00:00:01.29 bitrate=   3.5kbits/s speed=0.00903x elapsed=0:02:23.01    \nframe=  157 fps=1.1 q=33.0 size=       1KiB time=00:00:01.30 bitrate=   3.4kbits/s speed=0.00906x elapsed=0:02:23.53    \nframe=  158 fps=1.1 q=39.0 size=       1KiB time=00:00:01.30 bitrate=   3.4kbits/s speed=0.00908x elapsed=0:02:24.05    \nframe=  159 fps=1.1 q=36.0 size=       1KiB time=00:00:01.31 bitrate=   3.4kbits/s speed=0.00911x elapsed=0:02:24.56    \nframe=  160 fps=1.1 q=37.0 size=       1KiB time=00:00:01.32 bitrate=   3.4kbits/s speed=0.00913x elapsed=0:02:25.09    \nframe=  161 fps=1.1 q=20.0 size=       1KiB time=00:00:01.33 bitrate=   3.4kbits/s speed=0.00916x elapsed=0:02:25.60    \nframe=  162 fps=1.1 q=40.0 size=       1KiB time=00:00:01.34 bitrate=   3.3kbits/s speed=0.00918x elapsed=0:02:26.12    \nframe=  163 fps=1.1 q=39.0 size=       1KiB time=00:00:01.35 bitrate=   3.3kbits/s speed=0.00921x elapsed=0:02:26.63    \nframe=  163 fps=1.1 q=39.0 size=       1KiB time=00:00:01.35 bitrate=   3.3kbits/s speed=0.00917x elapsed=0:02:27.15    \nframe=  164 fps=1.1 q=40.0 size=       1KiB time=00:00:01.35 bitrate=   3.3kbits/s speed=0.0092x elapsed=0:02:27.66    \nframe=  165 fps=1.1 q=36.0 size=       1KiB time=00:00:01.36 bitrate=   3.3kbits/s speed=0.00922x elapsed=0:02:28.17    \nframe=  165 fps=1.1 q=36.0 size=       1KiB time=00:00:01.36 bitrate=   3.3kbits/s speed=0.00919x elapsed=0:02:28.74    \nframe=  165 fps=1.1 q=36.0 size=       1KiB time=00:00:01.36 bitrate=   3.3kbits/s speed=0.00916x elapsed=0:02:29.25    \nframe=  166 fps=1.1 q=40.0 size=       1KiB time=00:00:01.37 bitrate=   3.3kbits/s speed=0.00918x elapsed=0:02:29.77    \nframe=  166 fps=1.1 q=40.0 size=       1KiB time=00:00:01.37 bitrate=   3.3kbits/s speed=0.00914x elapsed=0:02:30.38    \nframe=  166 fps=1.1 q=40.0 size=       1KiB time=00:00:01.37 bitrate=   3.3kbits/s speed=0.00911x elapsed=0:02:30.99    \nframe=  167 fps=1.1 q=39.0 size=       1KiB time=00:00:01.38 bitrate=   3.2kbits/s speed=0.00913x elapsed=0:02:31.50    \nframe=  167 fps=1.1 q=39.0 size=       1KiB time=00:00:01.38 bitrate=   3.2kbits/s speed=0.0091x elapsed=0:02:32.03    \nframe=  168 fps=1.1 q=40.0 size=       1KiB time=00:00:01.39 bitrate=   3.2kbits/s speed=0.00912x elapsed=0:02:32.58    \nframe=  170 fps=1.1 q=40.0 size=       1KiB time=00:00:01.40 bitrate=   3.2kbits/s speed=0.00914x elapsed=0:02:33.12    \nframe=  170 fps=1.1 q=40.0 size=       1KiB time=00:00:01.40 bitrate=   3.2kbits/s speed=0.00916x elapsed=0:02:33.74    \nframe=  171 fps=1.1 q=38.0 size=       1KiB time=00:00:01.41 bitrate=   3.2kbits/s speed=0.00918x elapsed=0:02:34.29    \nframe=  172 fps=1.1 q=38.0 size=       1KiB time=00:00:01.42 bitrate=   3.1kbits/s speed=0.00921x elapsed=0:02:34.80    \nframe=  173 fps=1.1 q=35.0 size=       1KiB time=00:00:01.43 bitrate=   3.1kbits/s speed=0.00923x elapsed=0:02:35.32    \nframe=  175 fps=1.1 q=38.0 size=       1KiB time=00:00:01.45 bitrate=   3.1kbits/s speed=0.00931x elapsed=0:02:35.82    \nframe=  176 fps=1.1 q=40.0 size=       1KiB time=00:00:01.45 bitrate=   3.1kbits/s speed=0.00933x elapsed=0:02:36.34    \nframe=  176 fps=1.1 q=40.0 size=       1KiB time=00:00:01.45 bitrate=   3.1kbits/s speed=0.0093x elapsed=0:02:36.86    \nframe=  177 fps=1.1 q=22.0 size=       1KiB time=00:00:01.46 bitrate=   3.1kbits/s speed=0.00932x elapsed=0:02:37.38    \nframe=  178 fps=1.1 q=41.0 size=       1KiB time=00:00:01.47 bitrate=   3.0kbits/s speed=0.00934x elapsed=0:02:37.90    \nframe=  178 fps=1.1 q=41.0 size=       1KiB time=00:00:01.47 bitrate=   3.0kbits/s speed=0.00931x elapsed=0:02:38.41    \nframe=  179 fps=1.1 q=40.0 size=       1KiB time=00:00:01.48 bitrate=   3.0kbits/s speed=0.00933x elapsed=0:02:38.92    \nframe=  179 fps=1.1 q=40.0 size=       1KiB time=00:00:01.48 bitrate=   3.0kbits/s speed=0.0093x elapsed=0:02:39.44    \nframe=  180 fps=1.1 q=41.0 size=       1KiB time=00:00:01.49 bitrate=   3.0kbits/s speed=0.00932x elapsed=0:02:39.96    \nframe=  180 fps=1.1 q=41.0 size=       1KiB time=00:00:01.49 bitrate=   3.0kbits/s speed=0.00929x elapsed=0:02:40.48    \nframe=  181 fps=1.1 q=38.0 size=       1KiB time=00:00:01.50 bitrate=   3.0kbits/s speed=0.00932x elapsed=0:02:40.98    \nframe=  181 fps=1.1 q=38.0 size=       1KiB time=00:00:01.50 bitrate=   3.0kbits/s speed=0.00929x elapsed=0:02:41.51    \nframe=  181 fps=1.1 q=38.0 size=       1KiB time=00:00:01.50 bitrate=   3.0kbits/s speed=0.00926x elapsed=0:02:42.02    \nframe=  182 fps=1.1 q=39.0 size=       1KiB time=00:00:01.50 bitrate=   3.0kbits/s speed=0.00928x elapsed=0:02:42.53    \nframe=  182 fps=1.1 q=39.0 size=       1KiB time=00:00:01.50 bitrate=   3.0kbits/s speed=0.00925x elapsed=0:02:43.05    \nframe=  183 fps=1.1 q=36.0 size=       1KiB time=00:00:01.51 bitrate=   3.0kbits/s speed=0.00927x elapsed=0:02:43.57    \nframe=  183 fps=1.1 q=36.0 size=       1KiB time=00:00:01.51 bitrate=   3.0kbits/s speed=0.00924x elapsed=0:02:44.08    \nframe=  183 fps=1.1 q=36.0 size=       1KiB time=00:00:01.51 bitrate=   3.0kbits/s speed=0.00921x elapsed=0:02:44.60    \nframe=  185 fps=1.1 q=33.0 size=       1KiB time=00:00:01.53 bitrate=   2.9kbits/s speed=0.00929x elapsed=0:02:45.11    \nframe=  185 fps=1.1 q=33.0 size=       1KiB time=00:00:01.53 bitrate=   2.9kbits/s speed=0.00926x elapsed=0:02:45.63    \nframe=  186 fps=1.1 q=41.0 size=       1KiB time=00:00:01.54 bitrate=   2.9kbits/s speed=0.00928x elapsed=0:02:46.15    \nframe=  186 fps=1.1 q=41.0 size=       1KiB time=00:00:01.54 bitrate=   2.9kbits/s speed=0.00925x elapsed=0:02:46.66    \nframe=  187 fps=1.1 q=39.0 size=       1KiB time=00:00:01.55 bitrate=   2.9kbits/s speed=0.00927x elapsed=0:02:47.17    \nframe=  187 fps=1.1 q=39.0 size=       1KiB time=00:00:01.55 bitrate=   2.9kbits/s speed=0.00924x elapsed=0:02:47.70    \nframe=  188 fps=1.1 q=41.0 size=       1KiB time=00:00:01.55 bitrate=   2.9kbits/s speed=0.00926x elapsed=0:02:48.21    \nframe=  189 fps=1.1 q=35.0 size=       1KiB time=00:00:01.56 bitrate=   2.9kbits/s speed=0.00929x elapsed=0:02:48.72    \nframe=  191 fps=1.1 q=38.0 size=       1KiB time=00:00:01.58 bitrate=   2.8kbits/s speed=0.00936x elapsed=0:02:49.24    \nframe=  192 fps=1.1 q=40.0 size=       1KiB time=00:00:01.59 bitrate=   2.8kbits/s speed=0.00938x elapsed=0:02:49.75    \nframe=  193 fps=1.1 q=24.0 size=       1KiB time=00:00:01.60 bitrate=   2.8kbits/s speed=0.0094x elapsed=0:02:50.27    \nframe=  194 fps=1.1 q=42.0 size=       1KiB time=00:00:01.60 bitrate=   2.8kbits/s speed=0.00942x elapsed=0:02:50.79    \nframe=  194 fps=1.1 q=42.0 size=       1KiB time=00:00:01.60 bitrate=   2.8kbits/s speed=0.00939x elapsed=0:02:51.31    \nframe=  195 fps=1.1 q=40.0 size=       1KiB time=00:00:01.61 bitrate=   2.8kbits/s speed=0.00941x elapsed=0:02:51.83    \nframe=  195 fps=1.1 q=40.0 size=       1KiB time=00:00:01.61 bitrate=   2.8kbits/s speed=0.00938x elapsed=0:02:52.34    \nframe=  196 fps=1.1 q=42.0 size=       1KiB time=00:00:01.62 bitrate=   2.8kbits/s speed=0.0094x elapsed=0:02:52.87    \nframe=  197 fps=1.1 q=38.0 size=       1KiB time=00:00:01.63 bitrate=   2.7kbits/s speed=0.00942x elapsed=0:02:53.39    \nframe=  197 fps=1.1 q=38.0 size=       1KiB time=00:00:01.63 bitrate=   2.7kbits/s speed=0.00939x elapsed=0:02:53.90    \nframe=  198 fps=1.1 q=42.0 size=       1KiB time=00:00:01.64 bitrate=   2.7kbits/s speed=0.00941x elapsed=0:02:54.41    \nframe=  198 fps=1.1 q=42.0 size=       1KiB time=00:00:01.64 bitrate=   2.7kbits/s speed=0.00938x elapsed=0:02:54.93    \nframe=  199 fps=1.1 q=40.0 size=       1KiB time=00:00:01.65 bitrate=   2.7kbits/s speed=0.0094x elapsed=0:02:55.44    \nframe=  199 fps=1.1 q=40.0 size=       1KiB time=00:00:01.65 bitrate=   2.7kbits/s speed=0.00938x elapsed=0:02:55.95    \nframe=  200 fps=1.1 q=42.0 size=       1KiB time=00:00:01.65 bitrate=   2.7kbits/s speed=0.0094x elapsed=0:02:56.48    \nframe=  201 fps=1.1 q=34.0 size=       1KiB time=00:00:01.66 bitrate=   2.7kbits/s speed=0.00942x elapsed=0:02:56.99    \nframe=  201 fps=1.1 q=34.0 size=       1KiB time=00:00:01.66 bitrate=   2.7kbits/s speed=0.00939x elapsed=0:02:57.50    \nframe=  202 fps=1.1 q=42.0 size=       1KiB time=00:00:01.67 bitrate=   2.7kbits/s speed=0.00941x elapsed=0:02:58.02    \nframe=  202 fps=1.1 q=42.0 size=       1KiB time=00:00:01.67 bitrate=   2.7kbits/s speed=0.00938x elapsed=0:02:58.54    \nframe=  203 fps=1.1 q=39.0 size=       1KiB time=00:00:01.68 bitrate=   2.7kbits/s speed=0.0094x elapsed=0:02:59.06    \nframe=  204 fps=1.1 q=43.0 size=       1KiB time=00:00:01.69 bitrate=   2.6kbits/s speed=0.00942x elapsed=0:02:59.56    \nframe=  205 fps=1.1 q=35.0 size=       1KiB time=00:00:01.70 bitrate=   2.6kbits/s speed=0.00944x elapsed=0:03:00.09    \nframe=  206 fps=1.1 q=43.0 size=       1KiB time=00:00:01.70 bitrate=   2.6kbits/s speed=0.00946x elapsed=0:03:00.60    \nframe=  208 fps=1.1 q=43.0 size=       1KiB time=00:00:01.72 bitrate=   2.6kbits/s speed=0.00952x elapsed=0:03:01.11    \nframe=  208 fps=1.1 q=43.0 size=       1KiB time=00:00:01.72 bitrate=   2.6kbits/s speed=0.0095x elapsed=0:03:01.63    \nframe=  209 fps=1.1 q=25.0 size=       1KiB time=00:00:01.73 bitrate=   2.6kbits/s speed=0.00952x elapsed=0:03:02.15    \nframe=  210 fps=1.1 q=43.0 size=       1KiB time=00:00:01.74 bitrate=   2.6kbits/s speed=0.00953x elapsed=0:03:02.66    \nframe=  210 fps=1.1 q=43.0 size=       1KiB time=00:00:01.74 bitrate=   2.6kbits/s speed=0.00951x elapsed=0:03:03.17    \nframe=  211 fps=1.1 q=41.0 size=       1KiB time=00:00:01.75 bitrate=   2.6kbits/s speed=0.00953x elapsed=0:03:03.69    \nframe=  211 fps=1.1 q=41.0 size=       1KiB time=00:00:01.75 bitrate=   2.6kbits/s speed=0.0095x elapsed=0:03:04.20    \nframe=  212 fps=1.1 q=43.0 size=       1KiB time=00:00:01.75 bitrate=   2.5kbits/s speed=0.00952x elapsed=0:03:04.72    \nframe=  212 fps=1.1 q=43.0 size=       1KiB time=00:00:01.75 bitrate=   2.5kbits/s speed=0.00949x elapsed=0:03:05.23    \nframe=  213 fps=1.1 q=39.0 size=       1KiB time=00:00:01.76 bitrate=   2.5kbits/s speed=0.00951x elapsed=0:03:05.75    \nframe=  214 fps=1.1 q=43.0 size=       1KiB time=00:00:01.77 bitrate=   2.5kbits/s speed=0.00953x elapsed=0:03:06.27    \nframe=  214 fps=1.1 q=43.0 size=       1KiB time=00:00:01.77 bitrate=   2.5kbits/s speed=0.0095x elapsed=0:03:06.78    \nframe=  214 fps=1.1 q=43.0 size=       1KiB time=00:00:01.77 bitrate=   2.5kbits/s speed=0.00948x elapsed=0:03:07.30    \nframe=  214 fps=1.1 q=43.0 size=       1KiB time=00:00:01.77 bitrate=   2.5kbits/s speed=0.00945x elapsed=0:03:07.82    \nframe=  215 fps=1.1 q=37.0 size=       1KiB time=00:00:01.78 bitrate=   2.5kbits/s speed=0.00947x elapsed=0:03:08.33    \nframe=  215 fps=1.1 q=37.0 size=       1KiB time=00:00:01.78 bitrate=   2.5kbits/s speed=0.00944x elapsed=0:03:08.84    \nframe=  215 fps=1.1 q=37.0 size=       1KiB time=00:00:01.78 bitrate=   2.5kbits/s speed=0.00942x elapsed=0:03:09.36    \nframe=  216 fps=1.1 q=43.0 size=       1KiB time=00:00:01.79 bitrate=   2.5kbits/s speed=0.00944x elapsed=0:03:09.88    \nframe=  218 fps=1.1 q=43.0 size=       1KiB time=00:00:01.80 bitrate=   2.5kbits/s speed=0.0095x elapsed=0:03:10.40    \nframe=  219 fps=1.1 q=40.0 size=       1KiB time=00:00:01.80 bitrate=   2.5kbits/s speed=0.00947x elapsed=0:03:10.91    \nframe=  219 fps=1.1 q=40.0 size=       1KiB time=00:00:01.81 bitrate=   2.5kbits/s speed=0.00948x elapsed=0:03:11.58    \nframe=  220 fps=1.1 q=43.0 size=       1KiB time=00:00:01.82 bitrate=   2.5kbits/s speed=0.0095x elapsed=0:03:12.09    \nframe=  220 fps=1.1 q=43.0 size=       1KiB time=00:00:01.82 bitrate=   2.5kbits/s speed=0.00947x elapsed=0:03:12.61    \nframe=  221 fps=1.1 q=36.0 size=       1KiB time=00:00:01.83 bitrate=   2.4kbits/s speed=0.00949x elapsed=0:03:13.13    \nframe=  223 fps=1.2 q=39.0 size=       1KiB time=00:00:01.85 bitrate=   2.4kbits/s speed=0.00955x elapsed=0:03:13.64    \nframe=  223 fps=1.1 q=39.0 size=       1KiB time=00:00:01.85 bitrate=   2.4kbits/s speed=0.00953x elapsed=0:03:14.16    \nframe=  224 fps=1.2 q=43.0 size=       1KiB time=00:00:01.85 bitrate=   2.4kbits/s speed=0.00955x elapsed=0:03:14.68    \nframe=  225 fps=1.2 q=25.0 size=       1KiB time=00:00:01.86 bitrate=   2.4kbits/s speed=0.00956x elapsed=0:03:15.20    \nframe=  225 fps=1.1 q=25.0 size=       1KiB time=00:00:01.86 bitrate=   2.4kbits/s speed=0.00954x elapsed=0:03:15.71    \nframe=  226 fps=1.2 q=43.0 size=       1KiB time=00:00:01.87 bitrate=   2.4kbits/s speed=0.00956x elapsed=0:03:16.22    \nframe=  227 fps=1.2 q=41.0 size=       1KiB time=00:00:01.88 bitrate=   2.4kbits/s speed=0.00957x elapsed=0:03:16.74    \nframe=  227 fps=1.2 q=41.0 size=       1KiB time=00:00:01.88 bitrate=   2.4kbits/s speed=0.00955x elapsed=0:03:17.25    \nframe=  227 fps=1.1 q=41.0 size=       1KiB time=00:00:01.88 bitrate=   2.4kbits/s speed=0.00952x elapsed=0:03:17.77    \nframe=  228 fps=1.1 q=43.0 size=       1KiB time=00:00:01.89 bitrate=   2.4kbits/s speed=0.00954x elapsed=0:03:18.29    \nframe=  229 fps=1.2 q=39.0 size=       1KiB time=00:00:01.90 bitrate=   2.4kbits/s speed=0.00956x elapsed=0:03:18.81    \nframe=  229 fps=1.1 q=39.0 size=       1KiB time=00:00:01.90 bitrate=   2.4kbits/s speed=0.00953x elapsed=0:03:19.32    \nframe=  230 fps=1.2 q=43.0 size=       1KiB time=00:00:01.90 bitrate=   2.3kbits/s speed=0.00955x elapsed=0:03:19.84    \nframe=  230 fps=1.1 q=43.0 size=       1KiB time=00:00:01.90 bitrate=   2.3kbits/s speed=0.00952x elapsed=0:03:20.35    \nframe=  230 fps=1.1 q=43.0 size=       1KiB time=00:00:01.90 bitrate=   2.3kbits/s speed=0.0095x elapsed=0:03:20.86    \nframe=  231 fps=1.1 q=37.0 size=       1KiB time=00:00:01.91 bitrate=   2.3kbits/s speed=0.00952x elapsed=0:03:21.38    \nframe=  231 fps=1.1 q=37.0 size=       1KiB time=00:00:01.91 bitrate=   2.3kbits/s speed=0.00949x elapsed=0:03:21.90    \nframe=  232 fps=1.1 q=43.0 size=       1KiB time=00:00:01.92 bitrate=   2.3kbits/s speed=0.00951x elapsed=0:03:22.41    \nframe=  233 fps=1.1 q=35.0 size=       1KiB time=00:00:01.93 bitrate=   2.3kbits/s speed=0.00953x elapsed=0:03:22.93    \nframe=  234 fps=1.2 q=43.0 size=       1KiB time=00:00:01.94 bitrate=   2.3kbits/s speed=0.00954x elapsed=0:03:23.44    \nframe=  235 fps=1.2 q=40.0 size=       1KiB time=00:00:01.95 bitrate=   2.3kbits/s speed=0.00956x elapsed=0:03:23.95    \nframe=  235 fps=1.1 q=40.0 size=       1KiB time=00:00:01.95 bitrate=   2.3kbits/s speed=0.00954x elapsed=0:03:24.47    \nframe=  235 fps=1.1 q=40.0 size=       1KiB time=00:00:01.95 bitrate=   2.3kbits/s speed=0.00951x elapsed=0:03:24.98    \nframe=  236 fps=1.1 q=43.0 size=       1KiB time=00:00:01.95 bitrate=   2.3kbits/s speed=0.00953x elapsed=0:03:25.50    \nframe=  237 fps=1.2 q=36.0 size=       1KiB time=00:00:01.96 bitrate=   2.3kbits/s speed=0.00955x elapsed=0:03:26.01    \nframe=  238 fps=1.2 q=43.0 size=       1KiB time=00:00:01.97 bitrate=   2.3kbits/s speed=0.00956x elapsed=0:03:26.54    \nframe=  239 fps=1.2 q=39.0 size=       1KiB time=00:00:01.98 bitrate=   2.3kbits/s speed=0.00958x elapsed=0:03:27.05    \nframe=  241 fps=1.2 q=26.0 size=       1KiB time=00:00:02.00 bitrate=   2.2kbits/s speed=0.00964x elapsed=0:03:27.57    \nframe=  242 fps=1.2 q=43.0 size=       1KiB time=00:00:02.00 bitrate=   2.2kbits/s speed=0.00965x elapsed=0:03:28.08    \nframe=  242 fps=1.2 q=43.0 size=       1KiB time=00:00:02.00 bitrate=   2.2kbits/s speed=0.00963x elapsed=0:03:28.59    \nframe=  243 fps=1.2 q=41.0 size=       1KiB time=00:00:02.01 bitrate=   2.2kbits/s speed=0.00964x elapsed=0:03:29.11    \nframe=  243 fps=1.2 q=41.0 size=       1KiB time=00:00:02.01 bitrate=   2.2kbits/s speed=0.00962x elapsed=0:03:29.62    \nframe=  244 fps=1.2 q=43.0 size=       1KiB time=00:00:02.02 bitrate=   2.2kbits/s speed=0.00964x elapsed=0:03:30.14    \nframe=  244 fps=1.2 q=43.0 size=       1KiB time=00:00:02.02 bitrate=   2.2kbits/s speed=0.00961x elapsed=0:03:30.66    \nframe=  245 fps=1.2 q=39.0 size=       1KiB time=00:00:02.03 bitrate=   2.2kbits/s speed=0.00963x elapsed=0:03:31.18    \nframe=  246 fps=1.2 q=43.0 size=       1KiB time=00:00:02.04 bitrate=   2.2kbits/s speed=0.00964x elapsed=0:03:31.69    \nframe=  246 fps=1.2 q=43.0 size=       1KiB time=00:00:02.04 bitrate=   2.2kbits/s speed=0.00962x elapsed=0:03:32.21    \nframe=  246 fps=1.2 q=43.0 size=       1KiB time=00:00:02.04 bitrate=   2.2kbits/s speed=0.0096x elapsed=0:03:32.73    \nframe=  247 fps=1.2 q=38.0 size=       1KiB time=00:00:02.05 bitrate=   2.2kbits/s speed=0.00961x elapsed=0:03:33.32    \nframe=  247 fps=1.2 q=38.0 size=       1KiB time=00:00:02.05 bitrate=   2.2kbits/s speed=0.00959x elapsed=0:03:33.85    \nframe=  248 fps=1.2 q=43.0 size=       1KiB time=00:00:02.05 bitrate=   2.2kbits/s speed=0.0096x elapsed=0:03:34.37    \nframe=  250 fps=1.2 q=43.0 size=       1KiB time=00:00:02.07 bitrate=   2.2kbits/s speed=0.00965x elapsed=0:03:34.91    \nframe=  251 fps=1.2 q=40.0 size=       1KiB time=00:00:02.08 bitrate=   2.2kbits/s speed=0.00967x elapsed=0:03:35.50    \nframe=  252 fps=1.2 q=45.0 size=       1KiB time=00:00:02.09 bitrate=   2.1kbits/s speed=0.00968x elapsed=0:03:36.15    \nframe=  254 fps=1.2 q=45.0 size=       1KiB time=00:00:02.10 bitrate=   2.1kbits/s speed=0.00973x elapsed=0:03:36.70    \nframe=  256 fps=1.2 q=45.0 size=       1KiB time=00:00:02.12 bitrate=   2.1kbits/s speed=0.00978x elapsed=0:03:37.26    \nframe=  256 fps=1.2 q=45.0 size=       1KiB time=00:00:02.12 bitrate=   2.1kbits/s speed=0.00976x elapsed=0:03:37.82    \nframe=  257 fps=1.2 q=26.0 size=       1KiB time=00:00:02.13 bitrate=   2.1kbits/s speed=0.00977x elapsed=0:03:38.36    \nframe=  259 fps=1.2 q=43.0 size=       1KiB time=00:00:02.15 bitrate=   2.1kbits/s speed=0.00982x elapsed=0:03:38.90    \nframe=  259 fps=1.2 q=43.0 size=       1KiB time=00:00:02.15 bitrate=   2.1kbits/s speed=0.0098x elapsed=0:03:39.47    \nframe=  260 fps=1.2 q=45.0 size=       1KiB time=00:00:02.15 bitrate=   2.1kbits/s speed=0.00981x elapsed=0:03:40.03    \nframe=  261 fps=1.2 q=41.0 size=       1KiB time=00:00:02.16 bitrate=   2.1kbits/s speed=0.00982x elapsed=0:03:40.55    \nframe=  262 fps=1.2 q=45.0 size=       1KiB time=00:00:02.17 bitrate=   2.1kbits/s speed=0.00984x elapsed=0:03:41.14    \nframe=  262 fps=1.2 q=45.0 size=       1KiB time=00:00:02.17 bitrate=   2.1kbits/s speed=0.00981x elapsed=0:03:41.65    \nframe=  263 fps=1.2 q=39.0 size=       1KiB time=00:00:02.18 bitrate=   2.1kbits/s speed=0.00982x elapsed=0:03:42.25    \nframe=  263 fps=1.2 q=39.0 size=       1KiB time=00:00:02.18 bitrate=   2.1kbits/s speed=0.0098x elapsed=0:03:42.85    \nframe=  263 fps=1.2 q=39.0 size=       1KiB time=00:00:02.18 bitrate=   2.1kbits/s speed=0.00977x elapsed=0:03:43.39    \nframe=  264 fps=1.2 q=45.0 size=       1KiB time=00:00:02.19 bitrate=   2.0kbits/s speed=0.00979x elapsed=0:03:43.91    \nframe=  265 fps=1.2 q=36.0 size=       1KiB time=00:00:02.20 bitrate=   2.0kbits/s speed=0.0098x elapsed=0:03:44.44    \nframe=  267 fps=1.2 q=42.0 size=       1KiB time=00:00:02.21 bitrate=   2.0kbits/s speed=0.00985x elapsed=0:03:44.96    \nframe=  267 fps=1.2 q=42.0 size=       1KiB time=00:00:02.21 bitrate=   2.0kbits/s speed=0.00983x elapsed=0:03:45.47    \nframe=  268 fps=1.2 q=45.0 size=       1KiB time=00:00:02.22 bitrate=   2.0kbits/s speed=0.00985x elapsed=0:03:45.99    \nframe=  269 fps=1.2 q=38.0 size=       1KiB time=00:00:02.23 bitrate=   2.0kbits/s speed=0.00986x elapsed=0:03:46.54    \nframe=  271 fps=1.2 q=42.0 size=       1KiB time=00:00:02.25 bitrate=   2.0kbits/s speed=0.00991x elapsed=0:03:47.07    \nframe=  272 fps=1.2 q=45.0 size=       1KiB time=00:00:02.25 bitrate=   2.0kbits/s speed=0.00992x elapsed=0:03:47.60    \nframe=  273 fps=1.2 q=26.0 size=       1KiB time=00:00:02.26 bitrate=   2.0kbits/s speed=0.00993x elapsed=0:03:48.18    \nframe=  274 fps=1.2 q=45.0 size=       1KiB time=00:00:02.27 bitrate=   2.0kbits/s speed=0.00995x elapsed=0:03:48.72    \nframe=  275 fps=1.2 q=43.0 size=       1KiB time=00:00:02.27 bitrate=   2.0kbits/s speed=0.00992x elapsed=0:03:49.24    \nframe=  275 fps=1.2 q=43.0 size=       1KiB time=00:00:02.28 bitrate=   2.0kbits/s speed=0.00993x elapsed=0:03:49.87    \nframe=  275 fps=1.2 q=43.0 size=       1KiB time=00:00:02.28 bitrate=   2.0kbits/s speed=0.00991x elapsed=0:03:50.42    \nframe=  276 fps=1.2 q=45.0 size=       1KiB time=00:00:02.29 bitrate=   2.0kbits/s speed=0.00992x elapsed=0:03:50.93    \nframe=  277 fps=1.2 q=41.0 size=       1KiB time=00:00:02.30 bitrate=   1.9kbits/s speed=0.00994x elapsed=0:03:51.47    \nframe=  278 fps=1.2 q=45.0 size=       1KiB time=00:00:02.30 bitrate=   1.9kbits/s speed=0.00995x elapsed=0:03:51.98    \nframe=  278 fps=1.2 q=45.0 size=       1KiB time=00:00:02.30 bitrate=   1.9kbits/s speed=0.00993x elapsed=0:03:52.51    \nframe=  279 fps=1.2 q=43.0 size=       1KiB time=00:00:02.31 bitrate=   1.9kbits/s speed=0.00994x elapsed=0:03:53.03    \nframe=  279 fps=1.2 q=43.0 size=       1KiB time=00:00:02.31 bitrate=   1.9kbits/s speed=0.00992x elapsed=0:03:53.55    \nframe=  281 fps=1.2 q=37.0 size=       1KiB time=00:00:02.33 bitrate=   1.9kbits/s speed=0.00997x elapsed=0:03:54.06    \nframe=  282 fps=1.2 q=45.0 size=       1KiB time=00:00:02.34 bitrate=   1.9kbits/s speed=0.00998x elapsed=0:03:54.58    \nframe=  282 fps=1.2 q=45.0 size=       1KiB time=00:00:02.34 bitrate=   1.9kbits/s speed=0.00996x elapsed=0:03:55.15    \nframe=  283 fps=1.2 q=42.0 size=       1KiB time=00:00:02.35 bitrate=   1.9kbits/s speed=0.00997x elapsed=0:03:55.72    \nframe=  283 fps=1.2 q=42.0 size=       1KiB time=00:00:02.35 bitrate=   1.9kbits/s speed=0.00995x elapsed=0:03:56.24    \nframe=  284 fps=1.2 q=45.0 size=       1KiB time=00:00:02.35 bitrate=   1.9kbits/s speed=0.00996x elapsed=0:03:56.79    \nframe=  287 fps=1.2 q=41.0 size=       1KiB time=00:00:02.38 bitrate=   1.9kbits/s speed=0.01x elapsed=0:03:57.33    \nframe=  288 fps=1.2 q=45.0 size=       1KiB time=00:00:02.39 bitrate=   1.9kbits/s speed=0.0101x elapsed=0:03:57.90    \nframe=  290 fps=1.2 q=45.0 size=       1KiB time=00:00:02.40 bitrate=   1.9kbits/s speed=0.0101x elapsed=0:03:58.41    \nframe=  290 fps=1.2 q=45.0 size=       1KiB time=00:00:02.40 bitrate=   1.9kbits/s speed=0.0101x elapsed=0:03:58.92    \nframe=  291 fps=1.2 q=43.0 size=       1KiB time=00:00:02.41 bitrate=   1.9kbits/s speed=0.0101x elapsed=0:03:59.45    \nframe=  291 fps=1.2 q=43.0 size=       1KiB time=00:00:02.41 bitrate=   1.9kbits/s speed=0.0101x elapsed=0:04:00.00    \nframe=  292 fps=1.2 q=45.0 size=       1KiB time=00:00:02.42 bitrate=   1.8kbits/s speed=0.0101x elapsed=0:04:00.54    \nframe=  293 fps=1.2 q=41.0 size=       1KiB time=00:00:02.43 bitrate=   1.8kbits/s speed=0.0101x elapsed=0:04:01.09    \nframe=  294 fps=1.2 q=45.0 size=       1KiB time=00:00:02.44 bitrate=   1.8kbits/s speed=0.0101x elapsed=0:04:01.60    \nframe=  294 fps=1.2 q=45.0 size=       1KiB time=00:00:02.44 bitrate=   1.8kbits/s speed=0.0101x elapsed=0:04:02.11    \nframe=  295 fps=1.2 q=43.0 size=       1KiB time=00:00:02.45 bitrate=   1.8kbits/s speed=0.0101x elapsed=0:04:02.63    \nframe=  295 fps=1.2 q=43.0 size=       1KiB time=00:00:02.45 bitrate=   1.8kbits/s speed=0.0101x elapsed=0:04:03.14    \nframe=  295 fps=1.2 q=43.0 size=       1KiB time=00:00:02.45 bitrate=   1.8kbits/s speed=0.0101x elapsed=0:04:03.66    \nframe=  297 fps=1.2 q=37.0 size=       1KiB time=00:00:02.46 bitrate=   1.8kbits/s speed=0.0101x elapsed=0:04:04.17    \nframe=  298 fps=1.2 q=45.0 size=       1KiB time=00:00:02.47 bitrate=   1.8kbits/s speed=0.0101x elapsed=0:04:04.69    \nframe=  299 fps=1.2 q=42.0 size=       1KiB time=00:00:02.48 bitrate=   1.8kbits/s speed=0.0101x elapsed=0:04:05.21    \nframe=  299 fps=1.2 q=42.0 size=       1KiB time=00:00:02.48 bitrate=   1.8kbits/s speed=0.0101x elapsed=0:04:05.73    \nframe=  300 fps=1.2 q=46.0 size=       1KiB time=00:00:02.49 bitrate=   1.8kbits/s speed=0.0101x elapsed=0:04:06.25    \nframe=  301 fps=1.2 q=38.0 size=       1KiB time=00:00:02.50 bitrate=   1.8kbits/s speed=0.0101x elapsed=0:04:06.75    \nframe=  302 fps=1.2 q=46.0 size=       1KiB time=00:00:02.50 bitrate=   1.8kbits/s speed=0.0101x elapsed=0:04:07.26    \nframe=  304 fps=1.2 q=46.0 size=       1KiB time=00:00:02.52 bitrate=   1.8kbits/s speed=0.0102x elapsed=0:04:07.78    \nframe=  304 fps=1.2 q=46.0 size=       1KiB time=00:00:02.52 bitrate=   1.8kbits/s speed=0.0102x elapsed=0:04:08.30    \nframe=  305 fps=1.2 q=27.0 size=       1KiB time=00:00:02.53 bitrate=   1.8kbits/s speed=0.0102x elapsed=0:04:08.82    \nframe=  305 fps=1.2 q=27.0 size=       1KiB time=00:00:02.53 bitrate=   1.8kbits/s speed=0.0102x elapsed=0:04:09.34    \nframe=  306 fps=1.2 q=46.0 size=       1KiB time=00:00:02.54 bitrate=   1.8kbits/s speed=0.0102x elapsed=0:04:09.85    \nframe=  307 fps=1.2 q=44.0 size=       1KiB time=00:00:02.55 bitrate=   1.8kbits/s speed=0.0102x elapsed=0:04:10.36    \nframe=  307 fps=1.2 q=44.0 size=       1KiB time=00:00:02.55 bitrate=   1.8kbits/s speed=0.0102x elapsed=0:04:10.88    \nframe=  308 fps=1.2 q=46.0 size=       1KiB time=00:00:02.55 bitrate=   1.8kbits/s speed=0.0102x elapsed=0:04:11.39    \nframe=  309 fps=1.2 q=42.0 size=       1KiB time=00:00:02.56 bitrate=   1.7kbits/s speed=0.0102x elapsed=0:04:11.91    \nframe=  310 fps=1.2 q=46.0 size=       1KiB time=00:00:02.57 bitrate=   1.7kbits/s speed=0.0102x elapsed=0:04:12.42    \nframe=  310 fps=1.2 q=46.0 size=       1KiB time=00:00:02.57 bitrate=   1.7kbits/s speed=0.0102x elapsed=0:04:12.94    \nframe=  311 fps=1.2 q=44.0 size=       1KiB time=00:00:02.58 bitrate=   1.7kbits/s speed=0.0102x elapsed=0:04:13.45    \nframe=  311 fps=1.2 q=44.0 size=       1KiB time=00:00:02.58 bitrate=   1.7kbits/s speed=0.0102x elapsed=0:04:13.98    \nframe=  312 fps=1.2 q=46.0 size=       1KiB time=00:00:02.59 bitrate=   1.7kbits/s speed=0.0102x elapsed=0:04:14.49    \nframe=  313 fps=1.2 q=37.0 size=       1KiB time=00:00:02.60 bitrate=   1.7kbits/s speed=0.0102x elapsed=0:04:15.00    \nframe=  314 fps=1.2 q=46.0 size=       1KiB time=00:00:02.60 bitrate=   1.7kbits/s speed=0.0102x elapsed=0:04:15.52    \nframe=  314 fps=1.2 q=46.0 size=       1KiB time=00:00:02.60 bitrate=   1.7kbits/s speed=0.0102x elapsed=0:04:16.04    \nframe=  315 fps=1.2 q=43.0 size=       1KiB time=00:00:02.61 bitrate=   1.7kbits/s speed=0.0102x elapsed=0:04:16.55    \nframe=  315 fps=1.2 q=43.0 size=       1KiB time=00:00:02.61 bitrate=   1.7kbits/s speed=0.0102x elapsed=0:04:17.06    \nframe=  316 fps=1.2 q=46.0 size=       1KiB time=00:00:02.62 bitrate=   1.7kbits/s speed=0.0102x elapsed=0:04:17.59    \nframe=  317 fps=1.2 q=39.0 size=       1KiB time=00:00:02.63 bitrate=   1.7kbits/s speed=0.0102x elapsed=0:04:18.09    \nframe=  317 fps=1.2 q=39.0 size=       1KiB time=00:00:02.63 bitrate=   1.7kbits/s speed=0.0102x elapsed=0:04:18.62    \nframe=  318 fps=1.2 q=46.0 size=       1KiB time=00:00:02.64 bitrate=   1.7kbits/s speed=0.0102x elapsed=0:04:19.13    \nframe=  320 fps=1.2 q=46.0 size=       1KiB time=00:00:02.65 bitrate=   1.7kbits/s speed=0.0102x elapsed=0:04:19.64    \nframe=  321 fps=1.2 q=27.0 size=       1KiB time=00:00:02.66 bitrate=   1.7kbits/s speed=0.0103x elapsed=0:04:20.16    \nframe=  322 fps=1.2 q=46.0 size=       1KiB time=00:00:02.67 bitrate=   1.7kbits/s speed=0.0103x elapsed=0:04:20.67    \nframe=  323 fps=1.2 q=43.0 size=       1KiB time=00:00:02.68 bitrate=   1.7kbits/s speed=0.0103x elapsed=0:04:21.19    \nframe=  323 fps=1.2 q=43.0 size=       1KiB time=00:00:02.68 bitrate=   1.7kbits/s speed=0.0103x elapsed=0:04:21.70    \nframe=  324 fps=1.2 q=46.0 size=       1KiB time=00:00:02.69 bitrate=   1.7kbits/s speed=0.0103x elapsed=0:04:22.22    \nframe=  324 fps=1.2 q=46.0 size=       1KiB time=00:00:02.69 bitrate=   1.7kbits/s speed=0.0102x elapsed=0:04:22.74    \nframe=  325 fps=1.2 q=40.0 size=       1KiB time=00:00:02.70 bitrate=   1.7kbits/s speed=0.0103x elapsed=0:04:23.25    \nframe=  326 fps=1.2 q=46.0 size=       1KiB time=00:00:02.70 bitrate=   1.7kbits/s speed=0.0103x elapsed=0:04:23.76    \nframe=  326 fps=1.2 q=46.0 size=       1KiB time=00:00:02.70 bitrate=   1.7kbits/s speed=0.0102x elapsed=0:04:24.28    \nframe=  327 fps=1.2 q=43.0 size=       1KiB time=00:00:02.71 bitrate=   1.6kbits/s speed=0.0103x elapsed=0:04:24.80    \nframe=  327 fps=1.2 q=43.0 size=       1KiB time=00:00:02.71 bitrate=   1.6kbits/s speed=0.0102x elapsed=0:04:25.31    \nframe=  328 fps=1.2 q=46.0 size=       1KiB time=00:00:02.72 bitrate=   1.6kbits/s speed=0.0103x elapsed=0:04:25.83    \nframe=  329 fps=1.2 q=38.0 size=       1KiB time=00:00:02.73 bitrate=   1.6kbits/s speed=0.0103x elapsed=0:04:26.34    \nframe=  330 fps=1.2 q=46.0 size=       1KiB time=00:00:02.74 bitrate=   1.6kbits/s speed=0.0103x elapsed=0:04:26.87    \nframe=  330 fps=1.2 q=46.0 size=       1KiB time=00:00:02.74 bitrate=   1.6kbits/s speed=0.0103x elapsed=0:04:27.37    \nframe=  331 fps=1.2 q=43.0 size=       1KiB time=00:00:02.75 bitrate=   1.6kbits/s speed=0.0103x elapsed=0:04:27.89    \nframe=  332 fps=1.2 q=47.0 size=       1KiB time=00:00:02.75 bitrate=   1.6kbits/s speed=0.0103x elapsed=0:04:28.41    \nframe=  333 fps=1.2 q=40.0 size=       1KiB time=00:00:02.76 bitrate=   1.6kbits/s speed=0.0103x elapsed=0:04:28.92    \nframe=  335 fps=1.2 q=43.0 size=       1KiB time=00:00:02.78 bitrate=   1.6kbits/s speed=0.0103x elapsed=0:04:29.44    \nframe=  336 fps=1.2 q=47.0 size=       1KiB time=00:00:02.79 bitrate=   1.6kbits/s speed=0.0103x elapsed=0:04:29.95    \nframe=  336 fps=1.2 q=47.0 size=       1KiB time=00:00:02.79 bitrate=   1.6kbits/s speed=0.0103x elapsed=0:04:30.48    \nframe=  337 fps=1.2 q=27.0 size=       1KiB time=00:00:02.80 bitrate=   1.6kbits/s speed=0.0103x elapsed=0:04:30.99    \nframe=  338 fps=1.2 q=47.0 size=       1KiB time=00:00:02.80 bitrate=   1.6kbits/s speed=0.0103x elapsed=0:04:31.50    \nframe=  339 fps=1.2 q=45.0 size=       1KiB time=00:00:02.81 bitrate=   1.6kbits/s speed=0.0104x elapsed=0:04:32.01    \nframe=  339 fps=1.2 q=45.0 size=       1KiB time=00:00:02.81 bitrate=   1.6kbits/s speed=0.0103x elapsed=0:04:32.53    \nframe=  340 fps=1.2 q=47.0 size=       1KiB time=00:00:02.82 bitrate=   1.6kbits/s speed=0.0103x elapsed=0:04:33.05    \nframe=  341 fps=1.2 q=43.0 size=       1KiB time=00:00:02.83 bitrate=   1.6kbits/s speed=0.0104x elapsed=0:04:33.60    \nframe=  342 fps=1.2 q=47.0 size=       1KiB time=00:00:02.84 bitrate=   1.6kbits/s speed=0.0104x elapsed=0:04:34.11    \nframe=  342 fps=1.2 q=47.0 size=       1KiB time=00:00:02.84 bitrate=   1.6kbits/s speed=0.0103x elapsed=0:04:34.63    \nframe=  343 fps=1.2 q=45.0 size=       1KiB time=00:00:02.85 bitrate=   1.6kbits/s speed=0.0104x elapsed=0:04:35.15    \nframe=  343 fps=1.2 q=45.0 size=       1KiB time=00:00:02.85 bitrate=   1.6kbits/s speed=0.0103x elapsed=0:04:35.66    \nframe=  344 fps=1.2 q=47.0 size=       1KiB time=00:00:02.85 bitrate=   1.6kbits/s speed=0.0103x elapsed=0:04:36.17    \nframe=  345 fps=1.2 q=39.0 size=       1KiB time=00:00:02.86 bitrate=   1.6kbits/s speed=0.0104x elapsed=0:04:36.69    \nframe=  346 fps=1.2 q=47.0 size=       1KiB time=00:00:02.87 bitrate=   1.6kbits/s speed=0.0104x elapsed=0:04:37.21    \nframe=  347 fps=1.2 q=44.0 size=       1KiB time=00:00:02.88 bitrate=   1.6kbits/s speed=0.0104x elapsed=0:04:37.75    \nframe=  348 fps=1.3 q=47.0 size=       1KiB time=00:00:02.89 bitrate=   1.5kbits/s speed=0.0104x elapsed=0:04:38.38    \nframe=  349 fps=1.3 q=40.0 size=       1KiB time=00:00:02.90 bitrate=   1.5kbits/s speed=0.0104x elapsed=0:04:38.90    \nframe=  351 fps=1.3 q=43.0 size=       1KiB time=00:00:02.91 bitrate=   1.5kbits/s speed=0.0104x elapsed=0:04:39.41    \nframe=  351 fps=1.3 q=43.0 size=       1KiB time=00:00:02.91 bitrate=   1.5kbits/s speed=0.0104x elapsed=0:04:39.92    \nframe=  354 fps=1.3 q=47.0 size=       1KiB time=00:00:02.94 bitrate=   1.5kbits/s speed=0.0105x elapsed=0:04:40.45    \nframe=  355 fps=1.3 q=45.0 size=       1KiB time=00:00:02.95 bitrate=   1.5kbits/s speed=0.0105x elapsed=0:04:40.96    \nframe=  355 fps=1.3 q=45.0 size=       1KiB time=00:00:02.95 bitrate=   1.5kbits/s speed=0.0105x elapsed=0:04:41.48    \nframe=  356 fps=1.3 q=47.0 size=       1KiB time=00:00:02.95 bitrate=   1.5kbits/s speed=0.0105x elapsed=0:04:41.99    \nframe=  357 fps=1.3 q=43.0 size=       1KiB time=00:00:02.96 bitrate=   1.5kbits/s speed=0.0105x elapsed=0:04:42.50    \nframe=  358 fps=1.3 q=47.0 size=       1KiB time=00:00:02.97 bitrate=   1.5kbits/s speed=0.0105x elapsed=0:04:43.01    \nframe=  358 fps=1.3 q=47.0 size=       1KiB time=00:00:02.97 bitrate=   1.5kbits/s speed=0.0105x elapsed=0:04:43.54    \nframe=  358 fps=1.3 q=47.0 size=       1KiB time=00:00:02.97 bitrate=   1.5kbits/s speed=0.0105x elapsed=0:04:44.05    \nframe=  359 fps=1.3 q=42.0 size=       1KiB time=00:00:02.98 bitrate=   1.5kbits/s speed=0.0105x elapsed=0:04:44.56    \nframe=  359 fps=1.3 q=42.0 size=       1KiB time=00:00:02.98 bitrate=   1.5kbits/s speed=0.0105x elapsed=0:04:45.08    \nframe=  360 fps=1.3 q=47.0 size=       1KiB time=00:00:02.99 bitrate=   1.5kbits/s speed=0.0105x elapsed=0:04:45.59    \nframe=  361 fps=1.3 q=39.0 size=       1KiB time=00:00:03.00 bitrate=   1.5kbits/s speed=0.0105x elapsed=0:04:46.11    \nframe=  362 fps=1.3 q=47.0 size=       1KiB time=00:00:03.00 bitrate=   1.5kbits/s speed=0.0105x elapsed=0:04:46.64    \nframe=  363 fps=1.3 q=44.0 size=       1KiB time=00:00:03.01 bitrate=   1.5kbits/s speed=0.0105x elapsed=0:04:47.15    \nframe=  363 fps=1.3 q=44.0 size=       1KiB time=00:00:03.01 bitrate=   1.5kbits/s speed=0.0105x elapsed=0:04:47.66    \nframe=  364 fps=1.3 q=47.0 size=       1KiB time=00:00:03.02 bitrate=   1.5kbits/s speed=0.0105x elapsed=0:04:48.17    \nframe=  365 fps=1.3 q=41.0 size=       1KiB time=00:00:03.03 bitrate=   1.5kbits/s speed=0.0105x elapsed=0:04:48.70    \nframe=  366 fps=1.3 q=47.0 size=       1KiB time=00:00:03.04 bitrate=   1.5kbits/s speed=0.0105x elapsed=0:04:49.21    \nframe=  368 fps=1.3 q=47.0 size=       1KiB time=00:00:03.05 bitrate=   1.5kbits/s speed=0.0106x elapsed=0:04:49.72    \nframe=  368 fps=1.3 q=47.0 size=       1KiB time=00:00:03.05 bitrate=   1.5kbits/s speed=0.0105x elapsed=0:04:50.23    \nframe=  369 fps=1.3 q=29.0 size=       1KiB time=00:00:03.06 bitrate=   1.5kbits/s speed=0.0105x elapsed=0:04:50.76    \nframe=  370 fps=1.3 q=47.0 size=       1KiB time=00:00:03.07 bitrate=   1.5kbits/s speed=0.0106x elapsed=0:04:51.28    \nframe=  370 fps=1.3 q=47.0 size=       1KiB time=00:00:03.07 bitrate=   1.5kbits/s speed=0.0105x elapsed=0:04:51.79    \nframe=  371 fps=1.3 q=46.0 size=       1KiB time=00:00:03.08 bitrate=   1.5kbits/s speed=0.0105x elapsed=0:04:52.31    \nframe=  372 fps=1.3 q=47.0 size=       1KiB time=00:00:03.09 bitrate=   1.4kbits/s speed=0.0106x elapsed=0:04:52.84    \nframe=  373 fps=1.3 q=44.0 size=       1KiB time=00:00:03.10 bitrate=   1.4kbits/s speed=0.0106x elapsed=0:04:53.34    \nframe=  373 fps=1.3 q=44.0 size=       1KiB time=00:00:03.10 bitrate=   1.4kbits/s speed=0.0105x elapsed=0:04:53.87    \nframe=  374 fps=1.3 q=47.0 size=       1KiB time=00:00:03.10 bitrate=   1.4kbits/s speed=0.0106x elapsed=0:04:54.37    \nframe=  374 fps=1.3 q=47.0 size=       1KiB time=00:00:03.10 bitrate=   1.4kbits/s speed=0.0105x elapsed=0:04:54.89    \nframe=  375 fps=1.3 q=46.0 size=       1KiB time=00:00:03.11 bitrate=   1.4kbits/s speed=0.0106x elapsed=0:04:55.41    \nframe=  375 fps=1.3 q=46.0 size=       1KiB time=00:00:03.11 bitrate=   1.4kbits/s speed=0.0105x elapsed=0:04:55.92    \nframe=  375 fps=1.3 q=46.0 size=       1KiB time=00:00:03.11 bitrate=   1.4kbits/s speed=0.0105x elapsed=0:04:56.45    \nframe=  377 fps=1.3 q=40.0 size=       1KiB time=00:00:03.13 bitrate=   1.4kbits/s speed=0.0106x elapsed=0:04:56.95    \nframe=  378 fps=1.3 q=48.0 size=       1KiB time=00:00:03.14 bitrate=   1.4kbits/s speed=0.0106x elapsed=0:04:57.48    \nframe=  379 fps=1.3 q=44.0 size=       1KiB time=00:00:03.15 bitrate=   1.4kbits/s speed=0.0106x elapsed=0:04:57.99    \nframe=  379 fps=1.3 q=44.0 size=       1KiB time=00:00:03.15 bitrate=   1.4kbits/s speed=0.0106x elapsed=0:04:58.50    \nframe=  381 fps=1.3 q=41.0 size=       1KiB time=00:00:03.16 bitrate=   1.4kbits/s speed=0.0106x elapsed=0:04:59.02    \nframe=  382 fps=1.3 q=48.0 size=       1KiB time=00:00:03.17 bitrate=   1.4kbits/s speed=0.0106x elapsed=0:04:59.54    \nframe=  383 fps=1.3 q=44.0 size=       1KiB time=00:00:03.18 bitrate=   1.4kbits/s speed=0.0106x elapsed=0:05:00.04    \nframe=  384 fps=1.3 q=48.0 size=       1KiB time=00:00:03.19 bitrate=   1.4kbits/s speed=0.0106x elapsed=0:05:00.57    \nframe=  385 fps=1.3 q=29.0 size=       1KiB time=00:00:03.20 bitrate=   1.4kbits/s speed=0.0106x elapsed=0:05:01.08    \nframe=  386 fps=1.3 q=48.0 size=       1KiB time=00:00:03.20 bitrate=   1.4kbits/s speed=0.0106x elapsed=0:05:01.60    \nframe=  386 fps=1.3 q=48.0 size=       1KiB time=00:00:03.20 bitrate=   1.4kbits/s speed=0.0106x elapsed=0:05:02.11    \nframe=  387 fps=1.3 q=45.0 size=       1KiB time=00:00:03.21 bitrate=   1.4kbits/s speed=0.0106x elapsed=0:05:02.63    \nframe=  388 fps=1.3 q=48.0 size=       1KiB time=00:00:03.22 bitrate=   1.4kbits/s speed=0.0106x elapsed=0:05:03.14    \nframe=  389 fps=1.3 q=41.0 size=       1KiB time=00:00:03.23 bitrate=   1.4kbits/s speed=0.0106x elapsed=0:05:03.66    \nframe=  389 fps=1.3 q=41.0 size=       1KiB time=00:00:03.23 bitrate=   1.4kbits/s speed=0.0106x elapsed=0:05:04.17    \nframe=  389 fps=1.3 q=41.0 size=       1KiB time=00:00:03.23 bitrate=   1.4kbits/s speed=0.0106x elapsed=0:05:04.69    \nframe=  389 fps=1.3 q=41.0 size=       1KiB time=00:00:03.23 bitrate=   1.4kbits/s speed=0.0106x elapsed=0:05:05.21    \nframe=  389 fps=1.3 q=41.0 size=       1KiB time=00:00:03.23 bitrate=   1.4kbits/s speed=0.0106x elapsed=0:05:05.73    \nframe=  390 fps=1.3 q=48.0 size=       1KiB time=00:00:03.24 bitrate=   1.4kbits/s speed=0.0106x elapsed=0:05:06.25    \nframe=  390 fps=1.3 q=48.0 size=       1KiB time=00:00:03.24 bitrate=   1.4kbits/s speed=0.0106x elapsed=0:05:06.75    \nframe=  391 fps=1.3 q=45.0 size=       1KiB time=00:00:03.25 bitrate=   1.4kbits/s speed=0.0106x elapsed=0:05:07.28    \nframe=  393 fps=1.3 q=40.0 size=       1KiB time=00:00:03.26 bitrate=   1.4kbits/s speed=0.0106x elapsed=0:05:07.81    \nframe=  394 fps=1.3 q=48.0 size=       1KiB time=00:00:03.27 bitrate=   1.4kbits/s speed=0.0106x elapsed=0:05:08.32    \nframe=  394 fps=1.3 q=48.0 size=       1KiB time=00:00:03.27 bitrate=   1.4kbits/s speed=0.0106x elapsed=0:05:08.83    \nframe=  395 fps=1.3 q=45.0 size=       1KiB time=00:00:03.28 bitrate=   1.4kbits/s speed=0.0106x elapsed=0:05:09.35    \nframe=  395 fps=1.3 q=45.0 size=       1KiB time=00:00:03.28 bitrate=   1.4kbits/s speed=0.0106x elapsed=0:05:09.87    \nframe=  397 fps=1.3 q=41.0 size=       1KiB time=00:00:03.30 bitrate=   1.4kbits/s speed=0.0106x elapsed=0:05:10.39    \nframe=  397 fps=1.3 q=41.0 size=       1KiB time=00:00:03.30 bitrate=   1.4kbits/s speed=0.0106x elapsed=0:05:10.89    \nframe=  399 fps=1.3 q=44.0 size=       1KiB time=00:00:03.31 bitrate=   1.4kbits/s speed=0.0107x elapsed=0:05:11.40    \nframe=  400 fps=1.3 q=48.0 size=       1KiB time=00:00:03.32 bitrate=   1.3kbits/s speed=0.0107x elapsed=0:05:11.93    \nframe=  400 fps=1.3 q=48.0 size=       1KiB time=00:00:03.32 bitrate=   1.3kbits/s speed=0.0106x elapsed=0:05:12.45    \nframe=  401 fps=1.3 q=30.0 size=       1KiB time=00:00:03.33 bitrate=   1.3kbits/s speed=0.0107x elapsed=0:05:12.98    \nframe=  402 fps=1.3 q=48.0 size=       1KiB time=00:00:03.34 bitrate=   1.3kbits/s speed=0.0107x elapsed=0:05:13.49    \nframe=  402 fps=1.3 q=48.0 size=       1KiB time=00:00:03.34 bitrate=   1.3kbits/s speed=0.0106x elapsed=0:05:14.01    \nframe=  402 fps=1.3 q=48.0 size=       1KiB time=00:00:03.34 bitrate=   1.3kbits/s speed=0.0106x elapsed=0:05:14.51    \nframe=  402 fps=1.3 q=48.0 size=       1KiB time=00:00:03.34 bitrate=   1.3kbits/s speed=0.0106x elapsed=0:05:15.04    \nframe=  403 fps=1.3 q=46.0 size=       1KiB time=00:00:03.35 bitrate=   1.3kbits/s speed=0.0106x elapsed=0:05:15.55    \nframe=  404 fps=1.3 q=48.0 size=       1KiB time=00:00:03.35 bitrate=   1.3kbits/s speed=0.0106x elapsed=0:05:16.07    \nframe=  405 fps=1.3 q=44.0 size=       1KiB time=00:00:03.36 bitrate=   1.3kbits/s speed=0.0106x elapsed=0:05:16.58    \nframe=  405 fps=1.3 q=44.0 size=       1KiB time=00:00:03.36 bitrate=   1.3kbits/s speed=0.0106x elapsed=0:05:17.10    \nframe=  406 fps=1.3 q=48.0 size=       1KiB time=00:00:03.37 bitrate=   1.3kbits/s speed=0.0106x elapsed=0:05:17.61    \nframe=  406 fps=1.3 q=48.0 size=       1KiB time=00:00:03.37 bitrate=   1.3kbits/s speed=0.0106x elapsed=0:05:18.12    \nframe=  406 fps=1.3 q=48.0 size=       1KiB time=00:00:03.37 bitrate=   1.3kbits/s speed=0.0106x elapsed=0:05:18.65    \nframe=  408 fps=1.3 q=48.0 size=       1KiB time=00:00:03.39 bitrate=   1.3kbits/s speed=0.0106x elapsed=0:05:19.17    \nframe=  409 fps=1.3 q=40.0 size=       1KiB time=00:00:03.40 bitrate=   1.3kbits/s speed=0.0106x elapsed=0:05:19.67    \nframe=  410 fps=1.3 q=48.0 size=       1KiB time=00:00:03.40 bitrate=   1.3kbits/s speed=0.0106x elapsed=0:05:20.20    \nframe=  410 fps=1.3 q=48.0 size=       1KiB time=00:00:03.40 bitrate=   1.3kbits/s speed=0.0106x elapsed=0:05:20.70    \nframe=  410 fps=1.3 q=48.0 size=       1KiB time=00:00:03.40 bitrate=   1.3kbits/s speed=0.0106x elapsed=0:05:21.23    \nframe=  412 fps=1.3 q=47.0 size=       1KiB time=00:00:03.42 bitrate=   1.3kbits/s speed=0.0106x elapsed=0:05:21.74    \nframe=  413 fps=1.3 q=41.0 size=       1KiB time=00:00:03.43 bitrate=   1.3kbits/s speed=0.0107x elapsed=0:05:22.26    \nframe=  415 fps=1.3 q=44.0 size=       1KiB time=00:00:03.45 bitrate=   1.3kbits/s speed=0.0107x elapsed=0:05:22.77    \nframe=  415 fps=1.3 q=44.0 size=       1KiB time=00:00:03.45 bitrate=   1.3kbits/s speed=0.0107x elapsed=0:05:23.29    \nframe=  416 fps=1.3 q=47.0 size=       1KiB time=00:00:03.45 bitrate=   1.3kbits/s speed=0.0107x elapsed=0:05:23.80    \nframe=  417 fps=1.3 q=30.0 size=       1KiB time=00:00:03.46 bitrate=   1.3kbits/s speed=0.0107x elapsed=0:05:24.32    \nframe=  418 fps=1.3 q=47.0 size=       1KiB time=00:00:03.47 bitrate=   1.3kbits/s speed=0.0107x elapsed=0:05:24.83    \nframe=  418 fps=1.3 q=47.0 size=       1KiB time=00:00:03.47 bitrate=   1.3kbits/s speed=0.0107x elapsed=0:05:25.36    \nframe=  419 fps=1.3 q=46.0 size=       1KiB time=00:00:03.48 bitrate=   1.3kbits/s speed=0.0107x elapsed=0:05:25.87    \nframe=  419 fps=1.3 q=46.0 size=       1KiB time=00:00:03.48 bitrate=   1.3kbits/s speed=0.0107x elapsed=0:05:26.39    \nframe=  421 fps=1.3 q=44.0 size=       1KiB time=00:00:03.50 bitrate=   1.3kbits/s speed=0.0107x elapsed=0:05:26.90    \nframe=  421 fps=1.3 q=44.0 size=       1KiB time=00:00:03.50 bitrate=   1.3kbits/s speed=0.0107x elapsed=0:05:27.43    \nframe=  421 fps=1.3 q=44.0 size=       1KiB time=00:00:03.50 bitrate=   1.3kbits/s speed=0.0107x elapsed=0:05:27.95    \nframe=  422 fps=1.3 q=47.0 size=       1KiB time=00:00:03.50 bitrate=   1.3kbits/s speed=0.0107x elapsed=0:05:28.45    \nframe=  422 fps=1.3 q=47.0 size=       1KiB time=00:00:03.50 bitrate=   1.3kbits/s speed=0.0107x elapsed=0:05:28.98    \nframe=  423 fps=1.3 q=46.0 size=       1KiB time=00:00:03.51 bitrate=   1.3kbits/s speed=0.0107x elapsed=0:05:29.51    \nframe=  425 fps=1.3 q=40.0 size=       1KiB time=00:00:03.53 bitrate=   1.3kbits/s speed=0.0107x elapsed=0:05:30.07    \nframe=  426 fps=1.3 q=47.0 size=       1KiB time=00:00:03.54 bitrate=   1.3kbits/s speed=0.0107x elapsed=0:05:30.58    \nframe=  426 fps=1.3 q=47.0 size=       1KiB time=00:00:03.54 bitrate=   1.3kbits/s speed=0.0107x elapsed=0:05:31.12    \nframe=  426 fps=1.3 q=47.0 size=       1KiB time=00:00:03.54 bitrate=   1.3kbits/s speed=0.0107x elapsed=0:05:31.65    \nframe=  427 fps=1.3 q=44.0 size=       1KiB time=00:00:03.55 bitrate=   1.3kbits/s speed=0.0107x elapsed=0:05:32.16    \nframe=  429 fps=1.3 q=41.0 size=       1KiB time=00:00:03.56 bitrate=   1.3kbits/s speed=0.0107x elapsed=0:05:32.69    \nframe=  429 fps=1.3 q=41.0 size=       1KiB time=00:00:03.56 bitrate=   1.3kbits/s speed=0.0107x elapsed=0:05:33.26    \nframe=  432 fps=1.3 q=47.0 size=       1KiB time=00:00:03.59 bitrate=   1.2kbits/s speed=0.0108x elapsed=0:05:33.79    \nframe=  433 fps=1.3 q=30.0 size=       1KiB time=00:00:03.60 bitrate=   1.2kbits/s speed=0.0108x elapsed=0:05:34.29    \nframe=  433 fps=1.3 q=30.0 size=       1KiB time=00:00:03.60 bitrate=   1.2kbits/s speed=0.0108x elapsed=0:05:34.81    \nframe=  434 fps=1.3 q=47.0 size=       1KiB time=00:00:03.60 bitrate=   1.2kbits/s speed=0.0108x elapsed=0:05:35.33    \nframe=  434 fps=1.3 q=47.0 size=       1KiB time=00:00:03.60 bitrate=   1.2kbits/s speed=0.0107x elapsed=0:05:35.86    \nframe=  436 fps=1.3 q=47.0 size=       1KiB time=00:00:03.62 bitrate=   1.2kbits/s speed=0.0108x elapsed=0:05:36.39    \nframe=  437 fps=1.3 q=44.0 size=       1KiB time=00:00:03.63 bitrate=   1.2kbits/s speed=0.0108x elapsed=0:05:36.91    \nframe=  437 fps=1.3 q=44.0 size=       1KiB time=00:00:03.63 bitrate=   1.2kbits/s speed=0.0108x elapsed=0:05:37.46    \nframe=  437 fps=1.3 q=44.0 size=       1KiB time=00:00:03.63 bitrate=   1.2kbits/s speed=0.0107x elapsed=0:05:38.04    \nframe=  438 fps=1.3 q=47.0 size=       1KiB time=00:00:03.64 bitrate=   1.2kbits/s speed=0.0108x elapsed=0:05:38.55    \nframe=  438 fps=1.3 q=47.0 size=       1KiB time=00:00:03.64 bitrate=   1.2kbits/s speed=0.0107x elapsed=0:05:39.13    \nframe=  438 fps=1.3 q=47.0 size=       1KiB time=00:00:03.64 bitrate=   1.2kbits/s speed=0.0107x elapsed=0:05:39.72    \nframe=  438 fps=1.3 q=47.0 size=       1KiB time=00:00:03.64 bitrate=   1.2kbits/s speed=0.0107x elapsed=0:05:40.32    \nframe=  439 fps=1.3 q=41.0 size=       1KiB time=00:00:03.65 bitrate=   1.2kbits/s speed=0.0107x elapsed=0:05:40.92    \nframe=  439 fps=1.3 q=41.0 size=       1KiB time=00:00:03.65 bitrate=   1.2kbits/s speed=0.0107x elapsed=0:05:41.44    \nframe=  441 fps=1.3 q=40.0 size=       1KiB time=00:00:03.66 bitrate=   1.2kbits/s speed=0.0107x elapsed=0:05:41.99    \nframe=  442 fps=1.3 q=47.0 size=       1KiB time=00:00:03.67 bitrate=   1.2kbits/s speed=0.0107x elapsed=0:05:42.53    \nframe=  442 fps=1.3 q=47.0 size=       1KiB time=00:00:03.67 bitrate=   1.2kbits/s speed=0.0107x elapsed=0:05:43.12    \nframe=  443 fps=1.3 q=44.0 size=       1KiB time=00:00:03.68 bitrate=   1.2kbits/s speed=0.0107x elapsed=0:05:43.66    \nframe=  443 fps=1.3 q=44.0 size=       1KiB time=00:00:03.68 bitrate=   1.2kbits/s speed=0.0107x elapsed=0:05:44.29    \nframe=  446 fps=1.3 q=47.0 size=       1KiB time=00:00:03.70 bitrate=   1.2kbits/s speed=0.0108x elapsed=0:05:44.81    \nframe=  447 fps=1.3 q=43.0 size=       1KiB time=00:00:03.71 bitrate=   1.2kbits/s speed=0.0108x elapsed=0:05:45.33    \nframe=  447 fps=1.3 q=43.0 size=       1KiB time=00:00:03.71 bitrate=   1.2kbits/s speed=0.0107x elapsed=0:05:45.84    \nframe=  448 fps=1.3 q=47.0 size=       1KiB time=00:00:03.72 bitrate=   1.2kbits/s speed=0.0108x elapsed=0:05:46.37    \nframe=  449 fps=1.3 q=31.0 size=       1KiB time=00:00:03.73 bitrate=   1.2kbits/s speed=0.0108x elapsed=0:05:46.89    \nframe=  450 fps=1.3 q=47.0 size=       1KiB time=00:00:03.74 bitrate=   1.2kbits/s speed=0.0108x elapsed=0:05:47.41    \nframe=  450 fps=1.3 q=47.0 size=       1KiB time=00:00:03.74 bitrate=   1.2kbits/s speed=0.0108x elapsed=0:05:47.94    \nframe=  451 fps=1.3 q=45.0 size=       1KiB time=00:00:03.75 bitrate=   1.2kbits/s speed=0.0108x elapsed=0:05:48.50    \nframe=  452 fps=1.3 q=47.0 size=       1KiB time=00:00:03.75 bitrate=   1.2kbits/s speed=0.0108x elapsed=0:05:49.02    \nframe=  453 fps=1.3 q=43.0 size=       1KiB time=00:00:03.76 bitrate=   1.2kbits/s speed=0.0108x elapsed=0:05:49.61    \nframe=  453 fps=1.3 q=43.0 size=       1KiB time=00:00:03.76 bitrate=   1.2kbits/s speed=0.0108x elapsed=0:05:50.18    \nframe=  454 fps=1.3 q=47.0 size=       1KiB time=00:00:03.77 bitrate=   1.2kbits/s speed=0.0108x elapsed=0:05:50.75    \nframe=  454 fps=1.3 q=47.0 size=       1KiB time=00:00:03.77 bitrate=   1.2kbits/s speed=0.0107x elapsed=0:05:51.28    \nframe=  455 fps=1.3 q=45.0 size=       1KiB time=00:00:03.78 bitrate=   1.2kbits/s speed=0.0108x elapsed=0:05:51.88    \nframe=  456 fps=1.3 q=47.0 size=       1KiB time=00:00:03.79 bitrate=   1.2kbits/s speed=0.0108x elapsed=0:05:52.43    \nframe=  458 fps=1.3 q=47.0 size=       1KiB time=00:00:03.80 bitrate=   1.2kbits/s speed=0.0108x elapsed=0:05:52.96    \nframe=  458 fps=1.3 q=47.0 size=       1KiB time=00:00:03.80 bitrate=   1.2kbits/s speed=0.0108x elapsed=0:05:53.47    \nframe=  458 fps=1.3 q=47.0 size=       1KiB time=00:00:03.80 bitrate=   1.2kbits/s speed=0.0108x elapsed=0:05:54.03    \nframe=  459 fps=1.3 q=44.0 size=       1KiB time=00:00:03.81 bitrate=   1.2kbits/s speed=0.0108x elapsed=0:05:54.58    \nframe=  462 fps=1.3 q=47.0 size=       1KiB time=00:00:03.84 bitrate=   1.2kbits/s speed=0.0108x elapsed=0:05:55.16    \nframe=  463 fps=1.3 q=43.0 size=       1KiB time=00:00:03.85 bitrate=   1.2kbits/s speed=0.0108x elapsed=0:05:55.78    \nframe=  463 fps=1.3 q=43.0 size=       1KiB time=00:00:03.85 bitrate=   1.2kbits/s speed=0.0108x elapsed=0:05:56.33    \nframe=  464 fps=1.3 q=47.0 size=       1KiB time=00:00:03.85 bitrate=   1.2kbits/s speed=0.0108x elapsed=0:05:56.84    \nframe=  464 fps=1.3 q=47.0 size=       1KiB time=00:00:03.85 bitrate=   1.2kbits/s speed=0.0108x elapsed=0:05:57.37    \nframe=  465 fps=1.3 q=29.0 size=       1KiB time=00:00:03.86 bitrate=   1.2kbits/s speed=0.0108x elapsed=0:05:57.89    \nframe=  466 fps=1.3 q=47.0 size=       1KiB time=00:00:03.87 bitrate=   1.2kbits/s speed=0.0108x elapsed=0:05:58.44    \nframe=  466 fps=1.3 q=47.0 size=       1KiB time=00:00:03.87 bitrate=   1.2kbits/s speed=0.0108x elapsed=0:05:58.99    \nframe=  468 fps=1.3 q=47.0 size=       1KiB time=00:00:03.88 bitrate=   1.2kbits/s speed=0.0108x elapsed=0:05:59.51    \nframe=  468 fps=1.3 q=47.0 size=       1KiB time=00:00:03.89 bitrate=   1.2kbits/s speed=0.0108x elapsed=0:06:00.07    \nframe=  469 fps=1.3 q=43.0 size=       1KiB time=00:00:03.90 bitrate=   1.1kbits/s speed=0.0108x elapsed=0:06:00.63    \nframe=  470 fps=1.3 q=47.0 size=       1KiB time=00:00:03.90 bitrate=   1.1kbits/s speed=0.0108x elapsed=0:06:01.18    \nframe=  470 fps=1.3 q=47.0 size=       1KiB time=00:00:03.90 bitrate=   1.1kbits/s speed=0.0108x elapsed=0:06:01.70    \nframe=  470 fps=1.3 q=47.0 size=       1KiB time=00:00:03.90 bitrate=   1.1kbits/s speed=0.0108x elapsed=0:06:02.26    \nframe=  472 fps=1.3 q=47.0 size=       1KiB time=00:00:03.92 bitrate=   1.1kbits/s speed=0.0108x elapsed=0:06:02.84    \nframe=  473 fps=1.3 q=39.0 size=       1KiB time=00:00:03.93 bitrate=   1.1kbits/s speed=0.0108x elapsed=0:06:03.39    \nframe=  474 fps=1.3 q=47.0 size=       1KiB time=00:00:03.94 bitrate=   1.1kbits/s speed=0.0108x elapsed=0:06:03.93    \nframe=  474 fps=1.3 q=47.0 size=       1KiB time=00:00:03.94 bitrate=   1.1kbits/s speed=0.0108x elapsed=0:06:04.46    \nframe=  475 fps=1.3 q=44.0 size=       1KiB time=00:00:03.95 bitrate=   1.1kbits/s speed=0.0108x elapsed=0:06:04.99    \nframe=  477 fps=1.3 q=40.0 size=       1KiB time=00:00:03.96 bitrate=   1.1kbits/s speed=0.0109x elapsed=0:06:05.50    \nframe=  478 fps=1.3 q=47.0 size=       1KiB time=00:00:03.97 bitrate=   1.1kbits/s speed=0.0109x elapsed=0:06:06.02    \nframe=  479 fps=1.3 q=43.0 size=       1KiB time=00:00:03.98 bitrate=   1.1kbits/s speed=0.0109x elapsed=0:06:06.54    \nframe=  480 fps=1.3 q=47.0 size=       1KiB time=00:00:03.99 bitrate=   1.1kbits/s speed=0.0109x elapsed=0:06:07.11    \nframe=  480 fps=1.3 q=47.0 size=       1KiB time=00:00:03.99 bitrate=   1.1kbits/s speed=0.0109x elapsed=0:06:07.66    \nframe=  481 fps=1.3 q=31.0 size=       1KiB time=00:00:04.00 bitrate=   1.1kbits/s speed=0.0109x elapsed=0:06:08.18    \nframe=  482 fps=1.3 q=47.0 size=       1KiB time=00:00:04.00 bitrate=   1.1kbits/s speed=0.0109x elapsed=0:06:08.76    \nframe=  482 fps=1.3 q=47.0 size=       1KiB time=00:00:04.00 bitrate=   1.1kbits/s speed=0.0109x elapsed=0:06:09.31    \nframe=  483 fps=1.3 q=45.0 size=       1KiB time=00:00:04.01 bitrate=   1.1kbits/s speed=0.0109x elapsed=0:06:09.84    \nframe=  484 fps=1.3 q=47.0 size=       1KiB time=00:00:04.02 bitrate=   1.1kbits/s speed=0.0109x elapsed=0:06:10.36    \nframe=  485 fps=1.3 q=43.0 size=       1KiB time=00:00:04.03 bitrate=   1.1kbits/s speed=0.0109x elapsed=0:06:10.93    \nframe=  485 fps=1.3 q=43.0 size=       1KiB time=00:00:04.03 bitrate=   1.1kbits/s speed=0.0109x elapsed=0:06:11.44    \nframe=  485 fps=1.3 q=43.0 size=       1KiB time=00:00:04.03 bitrate=   1.1kbits/s speed=0.0108x elapsed=0:06:11.98    \nframe=  486 fps=1.3 q=47.0 size=       1KiB time=00:00:04.04 bitrate=   1.1kbits/s speed=0.0109x elapsed=0:06:12.49    \nframe=  486 fps=1.3 q=47.0 size=       1KiB time=00:00:04.04 bitrate=   1.1kbits/s speed=0.0108x elapsed=0:06:13.01    \nframe=  488 fps=1.3 q=47.0 size=       1KiB time=00:00:04.05 bitrate=   1.1kbits/s speed=0.0109x elapsed=0:06:13.52    \nframe=  489 fps=1.3 q=39.0 size=       1KiB time=00:00:04.06 bitrate=   1.1kbits/s speed=0.0109x elapsed=0:06:14.04    \nframe=  490 fps=1.3 q=47.0 size=       1KiB time=00:00:04.07 bitrate=   1.1kbits/s speed=0.0109x elapsed=0:06:14.57    \nframe=  490 fps=1.3 q=47.0 size=       1KiB time=00:00:04.07 bitrate=   1.1kbits/s speed=0.0109x elapsed=0:06:15.08    \nframe=  491 fps=1.3 q=44.0 size=       1KiB time=00:00:04.08 bitrate=   1.1kbits/s speed=0.0109x elapsed=0:06:15.74    \nframe=  491 fps=1.3 q=44.0 size=       1KiB time=00:00:04.08 bitrate=   1.1kbits/s speed=0.0109x elapsed=0:06:16.32    \nframe=  494 fps=1.3 q=47.0 size=       1KiB time=00:00:04.10 bitrate=   1.1kbits/s speed=0.0109x elapsed=0:06:16.84    \nframe=  495 fps=1.3 q=44.0 size=       1KiB time=00:00:04.11 bitrate=   1.1kbits/s speed=0.0109x elapsed=0:06:17.39    \nframe=  497 fps=1.3 q=31.0 size=       1KiB time=00:00:04.12 bitrate=   1.1kbits/s speed=0.0109x elapsed=0:06:17.91    \nframe=  497 fps=1.3 q=31.0 size=       1KiB time=00:00:04.13 bitrate=   1.1kbits/s speed=0.0109x elapsed=0:06:18.48    \nframe=  498 fps=1.3 q=47.0 size=       1KiB time=00:00:04.14 bitrate=   1.1kbits/s speed=0.0109x elapsed=0:06:19.06    \nframe=  498 fps=1.3 q=47.0 size=       1KiB time=00:00:04.14 bitrate=   1.1kbits/s speed=0.0109x elapsed=0:06:19.60    \nframe=  499 fps=1.3 q=46.0 size=       1KiB time=00:00:04.15 bitrate=   1.1kbits/s speed=0.0109x elapsed=0:06:20.18    \nframe=  500 fps=1.3 q=47.0 size=       1KiB time=00:00:04.15 bitrate=   1.1kbits/s speed=0.0109x elapsed=0:06:20.95    \nframe=  501 fps=1.3 q=44.0 size=       1KiB time=00:00:04.16 bitrate=   1.1kbits/s speed=0.0109x elapsed=0:06:21.69    \nframe=  505 fps=1.3 q=40.0 size=       1KiB time=00:00:04.20 bitrate=   1.1kbits/s speed=0.011x elapsed=0:06:22.43    \nframe=  507 fps=1.3 q=44.0 size=       1KiB time=00:00:04.20 bitrate=   1.1kbits/s speed=0.011x elapsed=0:06:23.37    \nframe=  509 fps=1.3 q=41.0 size=       1KiB time=00:00:04.23 bitrate=   1.1kbits/s speed=0.011x elapsed=0:06:24.08    \nframe=  509 fps=1.3 q=41.0 size=       1KiB time=00:00:04.23 bitrate=   1.1kbits/s speed=0.011x elapsed=0:06:24.97    \nframe=  511 fps=1.3 q=44.0 size=       1KiB time=00:00:04.25 bitrate=   1.1kbits/s speed=0.011x elapsed=0:06:25.79    \nframe=  513 fps=1.3 q=32.0 size=       1KiB time=00:00:04.26 bitrate=   1.0kbits/s speed=0.011x elapsed=0:06:26.56    \nframe=  513 fps=1.3 q=32.0 size=       1KiB time=00:00:04.26 bitrate=   1.0kbits/s speed=0.011x elapsed=0:06:27.11    \nframe=  513 fps=1.3 q=32.0 size=       1KiB time=00:00:04.26 bitrate=   1.0kbits/s speed=0.011x elapsed=0:06:27.65    \nframe=  513 fps=1.3 q=32.0 size=       1KiB time=00:00:04.26 bitrate=   1.0kbits/s speed=0.011x elapsed=0:06:28.26    \nframe=  515 fps=1.3 q=46.0 size=       1KiB time=00:00:04.28 bitrate=   1.0kbits/s speed=0.011x elapsed=0:06:28.82    \nframe=  515 fps=1.3 q=46.0 size=       1KiB time=00:00:04.28 bitrate=   1.0kbits/s speed=0.011x elapsed=0:06:29.33    \nframe=  517 fps=1.3 q=44.0 size=       1KiB time=00:00:04.30 bitrate=   1.0kbits/s speed=0.011x elapsed=0:06:29.87    \nframe=  517 fps=1.3 q=44.0 size=       1KiB time=00:00:04.30 bitrate=   1.0kbits/s speed=0.011x elapsed=0:06:30.40    \nframe=  519 fps=1.3 q=42.0 size=       1KiB time=00:00:04.31 bitrate=   1.0kbits/s speed=0.011x elapsed=0:06:30.93    \nframe=  521 fps=1.3 q=40.0 size=       1KiB time=00:00:04.33 bitrate=   1.0kbits/s speed=0.0111x elapsed=0:06:31.45    \nframe=  521 fps=1.3 q=40.0 size=       1KiB time=00:00:04.33 bitrate=   1.0kbits/s speed=0.0111x elapsed=0:06:31.99    \nframe=  521 fps=1.3 q=40.0 size=       1KiB time=00:00:04.33 bitrate=   1.0kbits/s speed=0.011x elapsed=0:06:32.51    \nframe=  521 fps=1.3 q=40.0 size=       1KiB time=00:00:04.33 bitrate=   1.0kbits/s speed=0.011x elapsed=0:06:33.03    \nframe=  523 fps=1.3 q=44.0 size=       1KiB time=00:00:04.35 bitrate=   1.0kbits/s speed=0.0111x elapsed=0:06:33.60    \nframe=  523 fps=1.3 q=44.0 size=       1KiB time=00:00:04.35 bitrate=   1.0kbits/s speed=0.011x elapsed=0:06:34.11    \nframe=  525 fps=1.3 q=41.0 size=       1KiB time=00:00:04.36 bitrate=   1.0kbits/s speed=0.0111x elapsed=0:06:34.62    \nframe=  525 fps=1.3 q=41.0 size=       1KiB time=00:00:04.36 bitrate=   1.0kbits/s speed=0.0111x elapsed=0:06:35.17    \nframe=  525 fps=1.3 q=41.0 size=       1KiB time=00:00:04.36 bitrate=   1.0kbits/s speed=0.011x elapsed=0:06:35.72    \nframe=  527 fps=1.3 q=44.0 size=       1KiB time=00:00:04.38 bitrate=   1.0kbits/s speed=0.0111x elapsed=0:06:36.25    \nframe=  529 fps=1.3 q=32.0 size=       1KiB time=00:00:04.40 bitrate=   1.0kbits/s speed=0.0111x elapsed=0:06:36.78    \nframe=  531 fps=1.3 q=46.0 size=       1KiB time=00:00:04.41 bitrate=   1.0kbits/s speed=0.0111x elapsed=0:06:37.28    \nframe=  533 fps=1.3 q=44.0 size=       1KiB time=00:00:04.43 bitrate=   1.0kbits/s speed=0.0111x elapsed=0:06:37.84    \nframe=  533 fps=1.3 q=44.0 size=       1KiB time=00:00:04.43 bitrate=   1.0kbits/s speed=0.0111x elapsed=0:06:38.41    \nframe=  533 fps=1.3 q=44.0 size=       1KiB time=00:00:04.43 bitrate=   1.0kbits/s speed=0.0111x elapsed=0:06:38.96    \nframe=  535 fps=1.3 q=42.0 size=       1KiB time=00:00:04.45 bitrate=   1.0kbits/s speed=0.0111x elapsed=0:06:39.48    \nframe=  537 fps=1.3 q=40.0 size=       1KiB time=00:00:04.46 bitrate=   1.0kbits/s speed=0.0112x elapsed=0:06:40.03    \nframe=  537 fps=1.3 q=40.0 size=       1KiB time=00:00:04.46 bitrate=   1.0kbits/s speed=0.0112x elapsed=0:06:40.56    \nframe=  537 fps=1.3 q=40.0 size=       1KiB time=00:00:04.46 bitrate=   1.0kbits/s speed=0.0111x elapsed=0:06:41.16    \nframe=  537 fps=1.3 q=40.0 size=       1KiB time=00:00:04.46 bitrate=   1.0kbits/s speed=0.0111x elapsed=0:06:41.68    \nframe=  539 fps=1.3 q=44.0 size=       1KiB time=00:00:04.48 bitrate=   1.0kbits/s speed=0.0111x elapsed=0:06:42.21    \nframe=  541 fps=1.3 q=41.0 size=       1KiB time=00:00:04.50 bitrate=   1.0kbits/s speed=0.0112x elapsed=0:06:42.74    \nframe=  541 fps=1.3 q=41.0 size=       1KiB time=00:00:04.50 bitrate=   1.0kbits/s speed=0.0112x elapsed=0:06:43.32    \nframe=  541 fps=1.3 q=41.0 size=       1KiB time=00:00:04.50 bitrate=   1.0kbits/s speed=0.0111x elapsed=0:06:43.87    \nframe=  543 fps=1.3 q=44.0 size=       1KiB time=00:00:04.51 bitrate=   1.0kbits/s speed=0.0112x elapsed=0:06:44.43    \nframe=  545 fps=1.3 q=33.0 size=       1KiB time=00:00:04.53 bitrate=   1.0kbits/s speed=0.0112x elapsed=0:06:44.98    \nframe=  545 fps=1.3 q=33.0 size=       1KiB time=00:00:04.53 bitrate=   1.0kbits/s speed=0.0112x elapsed=0:06:45.57    \nframe=  547 fps=1.3 q=46.0 size=       1KiB time=00:00:04.55 bitrate=   1.0kbits/s speed=0.0112x elapsed=0:06:46.09    \nframe=  549 fps=1.3 q=44.0 size=       1KiB time=00:00:04.56 bitrate=   1.0kbits/s speed=0.0112x elapsed=0:06:46.68    \nframe=  549 fps=1.3 q=44.0 size=       1KiB time=00:00:04.56 bitrate=   1.0kbits/s speed=0.0112x elapsed=0:06:47.24    \nframe=  549 fps=1.3 q=44.0 size=       1KiB time=00:00:04.56 bitrate=   1.0kbits/s speed=0.0112x elapsed=0:06:47.80    \nframe=  551 fps=1.3 q=42.0 size=       1KiB time=00:00:04.58 bitrate=   1.0kbits/s speed=0.0112x elapsed=0:06:48.32    \nframe=  553 fps=1.4 q=40.0 size=       1KiB time=00:00:04.60 bitrate=   1.0kbits/s speed=0.0113x elapsed=0:06:48.83    \nframe=  553 fps=1.4 q=40.0 size=       1KiB time=00:00:04.60 bitrate=   1.0kbits/s speed=0.0112x elapsed=0:06:49.39    \nframe=  553 fps=1.3 q=40.0 size=       1KiB time=00:00:04.60 bitrate=   1.0kbits/s speed=0.0112x elapsed=0:06:49.92    \nframe=  553 fps=1.3 q=40.0 size=       1KiB time=00:00:04.60 bitrate=   1.0kbits/s speed=0.0112x elapsed=0:06:50.44    \nframe=  555 fps=1.4 q=44.0 size=       1KiB time=00:00:04.61 bitrate=   1.0kbits/s speed=0.0112x elapsed=0:06:50.99    \nframe=  557 fps=1.4 q=41.0 size=       1KiB time=00:00:04.63 bitrate=   1.0kbits/s speed=0.0113x elapsed=0:06:51.53    \nframe=  557 fps=1.4 q=41.0 size=       1KiB time=00:00:04.63 bitrate=   1.0kbits/s speed=0.0112x elapsed=0:06:52.11    \nframe=  557 fps=1.3 q=41.0 size=       1KiB time=00:00:04.63 bitrate=   1.0kbits/s speed=0.0112x elapsed=0:06:52.63    \nframe=  559 fps=1.4 q=43.0 size=       1KiB time=00:00:04.65 bitrate=   1.0kbits/s speed=0.0113x elapsed=0:06:53.14    \nframe=  561 fps=1.4 q=33.0 size=       1KiB time=00:00:04.66 bitrate=   1.0kbits/s speed=0.0113x elapsed=0:06:53.66    \nframe=  565 fps=1.4 q=43.0 size=       1KiB time=00:00:04.70 bitrate=   1.0kbits/s speed=0.0113x elapsed=0:06:54.19    \nframe=  565 fps=1.4 q=43.0 size=       1KiB time=00:00:04.70 bitrate=   1.0kbits/s speed=0.0113x elapsed=0:06:54.74    \nframe=  565 fps=1.4 q=43.0 size=       1KiB time=00:00:04.70 bitrate=   1.0kbits/s speed=0.0113x elapsed=0:06:55.27    \nframe=  565 fps=1.4 q=43.0 size=       1KiB time=00:00:04.70 bitrate=   1.0kbits/s speed=0.0113x elapsed=0:06:55.82    \nframe=  567 fps=1.4 q=41.0 size=       1KiB time=00:00:04.71 bitrate=   0.9kbits/s speed=0.0113x elapsed=0:06:56.36    \nframe=  569 fps=1.4 q=40.0 size=       1KiB time=00:00:04.73 bitrate=   0.9kbits/s speed=0.0114x elapsed=0:06:56.90    \nframe=  569 fps=1.4 q=40.0 size=       1KiB time=00:00:04.73 bitrate=   0.9kbits/s speed=0.0113x elapsed=0:06:57.43    \nframe=  569 fps=1.4 q=40.0 size=       1KiB time=00:00:04.73 bitrate=   0.9kbits/s speed=0.0113x elapsed=0:06:57.98    \nframe=  569 fps=1.4 q=40.0 size=       1KiB time=00:00:04.73 bitrate=   0.9kbits/s speed=0.0113x elapsed=0:06:58.59    \nframe=  569 fps=1.4 q=40.0 size=       1KiB time=00:00:04.73 bitrate=   0.9kbits/s speed=0.0113x elapsed=0:06:59.19    \nframe=  571 fps=1.4 q=45.0 size=       1KiB time=00:00:04.75 bitrate=   0.9kbits/s speed=0.0113x elapsed=0:06:59.74    \nframe=  573 fps=1.4 q=43.0 size=       1KiB time=00:00:04.76 bitrate=   0.9kbits/s speed=0.0113x elapsed=0:07:00.28    \nframe=  573 fps=1.4 q=43.0 size=       1KiB time=00:00:04.76 bitrate=   0.9kbits/s speed=0.0113x elapsed=0:07:00.80    \nframe=  577 fps=1.4 q=33.0 size=       1KiB time=00:00:04.80 bitrate=   0.9kbits/s speed=0.0114x elapsed=0:07:01.36    \nframe=  579 fps=1.4 q=46.0 size=       1KiB time=00:00:04.81 bitrate=   0.9kbits/s speed=0.0114x elapsed=0:07:01.89    \nframe=  581 fps=1.4 q=46.0 size=       1KiB time=00:00:04.83 bitrate=   0.9kbits/s speed=0.0114x elapsed=0:07:02.48    \nframe=  581 fps=1.4 q=46.0 size=       1KiB time=00:00:04.83 bitrate=   0.9kbits/s speed=0.0114x elapsed=0:07:03.09    \nframe=  585 fps=1.4 q=43.0 size=       1KiB time=00:00:04.86 bitrate=   0.9kbits/s speed=0.0115x elapsed=0:07:03.63    \nframe=  585 fps=1.4 q=43.0 size=       1KiB time=00:00:04.86 bitrate=   0.9kbits/s speed=0.0115x elapsed=0:07:04.24    \nframe=  585 fps=1.4 q=43.0 size=       1KiB time=00:00:04.86 bitrate=   0.9kbits/s speed=0.0115x elapsed=0:07:04.80    \nframe=  589 fps=1.4 q=46.0 size=       1KiB time=00:00:04.90 bitrate=   0.9kbits/s speed=0.0115x elapsed=0:07:05.33    \nframe=  591 fps=1.4 q=46.0 size=       1KiB time=00:00:04.90 bitrate=   0.9kbits/s speed=0.0115x elapsed=0:07:05.84    \n[out#0/matroska @ 000001fcb9fa9940] video:5084KiB audio:0KiB subtitle:0KiB other streams:0KiB global headers:0KiB muxing overhead: 0.064814%\nframe=  600 fps=1.4 q=46.0 Lsize=    5087KiB time=00:00:04.99 bitrate=8348.4kbits/s speed=0.0117x elapsed=0:07:06.33    \n",
  "seconds": 428.28710412979126,
  "probe_out": {}
}